<?xml version="1.0" encoding="UTF-8"?><svg id="uuid-83fafb08-360e-421f-8d7f-14f725e3e1ec" xmlns="http://www.w3.org/2000/svg" viewBox="0 0 225.808554041898788 225.808554041897878"><defs><style>.uuid-04a1f4cb-e15d-4f4c-87c6-12968c13333b{stroke:#231f20;stroke-miterlimit:10;stroke-width:1.299999952316284px;}.uuid-04a1f4cb-e15d-4f4c-87c6-12968c13333b,.uuid-d9f76950-e84f-497b-8360-30f639d967d5{fill:#231f20;}.uuid-7d78b53f-6b52-4f16-8bf1-821788407bf9{fill:#94d5d2;}.uuid-7d78b53f-6b52-4f16-8bf1-821788407bf9,.uuid-d9f76950-e84f-497b-8360-30f639d967d5,.uuid-1d2d0f06-36be-4c5e-ad98-00b96036be47,.uuid-35bf85ea-0f60-44f7-bcb3-f72ee94a2e00,.uuid-b0f9bd33-a3d7-452c-a023-a1c0ae3ad3f2{stroke-width:0px;}.uuid-1d2d0f06-36be-4c5e-ad98-00b96036be47{fill:#a97c50;}.uuid-35bf85ea-0f60-44f7-bcb3-f72ee94a2e00{fill:#fff;}.uuid-b0f9bd33-a3d7-452c-a023-a1c0ae3ad3f2{fill:#fbb040;}</style></defs><g id="uuid-a01b86d0-6f5a-4988-9e1a-7ac7d2912d1a"><rect class="uuid-04a1f4cb-e15d-4f4c-87c6-12968c13333b" x=".649999976158142" y=".649999976158142" width="224.508554089582503" height="224.508554089581594" rx="12" ry="12"/><path class="uuid-7d78b53f-6b52-4f16-8bf1-821788407bf9" d="m131.079036296060622,149.169692914447296c-2.697844445267037-1.559640697151735-5.395688890537713-3.119281394297104-8.093533335807479-4.678922091444292l-1.144647566522508-.661727896051161c-3.099829333519665-1.792030667766085-6.996112726838874-1.813075025908802-10.094382961458905,0-3.041443552592682,1.779820651633599-4.95280866363737,5.10939918548047-4.952808519270548,8.634706851476039.000000127457497,3.112398392740033.000000254774022,6.224796785480066.000000382162398,9.337195178220099.000000018338142.448035184991568.000000036665369.896070369984045.000000055013516,1.344105554975613.000000144366822,3.52530775125706,1.911364774570757,6.854886087423438,4.952808519270548,8.634706851476039,3.098270040172793,1.813074912120101,6.994553846097006,1.792030880753373,10.094382961458905,0,2.697844317639465-1.559640918500008,5.395688635198894-3.11928183713826,8.09353295280016-4.678922755705571.381549170784638-.220575996664593.763098341563818-.44115199333919,1.144647512353913-.661727989994688,1.165350596076678-.62840708929707,2.100582546389887-1.48693282435579,2.805695850941447-2.575577205178888.883879218051334-.965827955597888,1.480513552671255-2.099405796998326,1.789903003859763-3.400733524199495.41674460854756-1.329198061049283.476279552625783-2.658396122097656.178604832234669-3.98759418314603-.060353772358212-1.330823322699871-.45591654445434-2.570154462592654-1.186688316289292-3.717993419681079-1.376607830308785-2.135225095965325-3.426481592015989-4.014829237528829-5.976310729378383-4.59559885480121l-2.658396122097656-.357209664469337c-1.805080536633795.005610441706267-3.487477696877249.460708157880617-5.047191480729452,1.365293148523961-2.697844317639465,1.559640918500008-5.395688635198894,3.119281837137351-8.09353295280016,4.678922755705571-.381549170784638.220575996664593-.763098341563818.44115199333919-1.144647512353913.661727989994688l15.047191480729452,8.634706851476039c-.000000127457497-3.112398392740033-.000000254774022-6.224796785480066-.000000382162398-9.337195178220099-.000000018338142-.448035184991568-.000000036665369-.896070369984045-.000000055013516-1.344105554975613l-15.047191480729452,8.634706851476039c2.697844445267037,1.559640697150826,5.395688890537713,3.119281394297104,8.093533335807479,4.678922091445202l1.144647566522508.661727896050252c1.147838957087515.730771771834952,2.387170096981208,1.12633454393108,3.717993419681079,1.186688316289292,1.329198061048373.297674720391115,2.658396122096747.238139776312892,3.98759418314603-.178604832234669,1.301327727201169-.309389451188508,2.434905568601607-.906023785808429,3.400733524199495-1.789903003859763,1.088644380823098-.70511330455156,1.947170115881818-1.640345254864769,2.575577205178888-2.805695850941447,1.226184743941303-2.320800516491545,1.84083382206245-5.132302753809199,1.008083484054623-7.705587602827109-.800836587022786-2.474668050995206-2.298936871548904-4.648596115229338-4.59559885480121-5.976310729378383Z"/><path class="uuid-7d78b53f-6b52-4f16-8bf1-821788407bf9" d="m82.995294959530838,67.152635081817607c-9.985753283184749-.075999176691766-19.970991637314-.151691015521465-29.957048407391994-.174625051483417-3.998324952960502-.009182576302919-7.608377877147177,2.520777909619028-9.138748593502896,6.1472061985869-1.558022648605402,3.691953424988242-.771914351083069,8.029674496410735,2.067680781637137,10.923861613278859.092071336603112.095239715549724.185035108740522.189595485560858.278891316411318.283067310032493,3.703816102289238,3.704096539108832,10.488765535310449,3.979785687816729,14.14213562373061,0,3.744763987078841-4.079345305657625,3.848207219529286-10.083918450782221,0-14.142135623731519-.091126921967771-.096100032704271-.183117157723245-.191581476811734-.278891316410409-.283067310032493-1.881432963382395-1.797191065552397-4.446339691271533-2.92893218813424-7.07106781186576-2.92893218813424-2.452672876710494,0-5.382418768729622,1.08940837013597-7.07106781186576,2.92893218813424-3.711713257337578,4.043341610982679-3.8915435246372,10.127163209735954,0,14.142135623731519,6.341029893220366,6.54214964741368,12.682052040255257,13.084306802873471,19.023081933475623,19.626456450287151l-1.56363903961028-12.118259292595212c-5.207375511758983,7.130775942783657-10.414748504948875,14.261553724795704-15.622124016708767,21.392329667579361l17.269413702952079,10.094382961458905c.556104701435288-.761508238378156,1.112235527835765-1.522997407136245,1.668310384219694-2.284527439903286,1.440088034573819-1.972163056047975,1.628470280093097-5.452739799388837,1.008083484054623-7.705587602827109-.638766343665338-2.319590557737683-2.432288228954349-4.833335076378717-4.59559885480121-5.976310729378383-2.320800516491545-1.226184743941303-5.132302753809199-1.84083382206336-7.705587602827109-1.008083484054623-2.618118853537453.847259237958497-4.359845331695396,2.38231713289224-5.976310729378383,4.59559885480121-.556144568723539.761479095351206-1.11228025750097,1.522964775263063-1.668310384219694,2.284527439903286-2.049060442881455,2.806480900773749-1.665772307199404,7.247830732068905,0,10.094382961458905,1.780362056741978,3.042368731809802,5.108988838218465,4.951417979178586,8.634706851476039,4.952808519270548,13.58353825260474.005357335573535,27.167076498975803.010730459356637,40.750614751579633.016087796523607,5.230839828040189.002063039254608,10.241820904649103-4.601021592315192,10-10-.24275291118829-5.419786712848691-4.393798234082169-9.997788918282822-10-10-13.58353825260383-.00535733716697-27.167076498975803-.010730460950072-40.750614751579633-.016087796523607l8.634706851476039,15.047191480729452c.556030126697806-.761562664612029,1.112165815442495-1.523048344479321,1.668310384219694-2.284527439903286l-17.269413702952079-10.094382961458905c-.556074856227497.76153003255331-1.112205683051798,1.523019201891657-1.668310384219694,2.284527439903286-1.440132343467667,1.972061450073852-1.628444562837103,5.45283318800648-1.008083484054623,7.705587602827109.638766343665338,2.319590557738593,2.432288228954349,4.833335076377807,4.59559885480121,5.976310729378383,2.320800516491545,1.226184743941303,5.132302753809199,1.84083382206245,7.705587602827109,1.008083484054623,2.618053743366545-.847238167412797,4.359982071301602-2.382261736205692,5.976310729378383-4.59559885480121,5.207375511758983-7.130775942783657,10.414748504949785-14.261553724795704,15.622124016708767-21.392329667579361l1.008083484054623-2.388795358631796c.41674460854756-1.329198061049283.476279552625783-2.658396122097656.178604832234669-3.987594183146939-.294865201863104-2.194421336105734-1.179310289635396-4.121024411933831-2.750327355899572-5.741869750816477-6.341029893220366-6.54214964741368-12.682052040255257-13.084306802873471-19.023081933475623-19.626456450287151-4.714045207910203,4.714045207911113-9.428090415821316,9.428090415820407-14.142135623731519,14.142135623731519.095774158687163.091485833219849.187764394442638.186967277328222.278891316411318.283067310032493l14.14213562373061-14.142135623731519c-.093856207670797-.093471824471635-.186819979807296-.18782759448186-.278891316410409-.283067310032493l-7.07106781186576,17.07106781186576c9.986056755727077.022934035928301,19.97129512315405.098625874784375,29.957048407391994.174625051483417,5.231867523863912.039818490713515,10.24061131941744-4.628027216817827,10-10-.24420078064577-5.452112354629207-4.393220922607725-9.957328147242151-10-10h0Z"/><path class="uuid-7d78b53f-6b52-4f16-8bf1-821788407bf9" d="m121.00462864999372,128.098745596024855c12.895784691649169-.087447665565378,25.792181820361293.087447665560831,38.687966513149149,0l-8.634706851476039-4.952808519270548c5.223655980479634,6.792764212206748,10.447314578894293,13.585526411212413,15.670970559371199,20.378290623420071v-10.094382961458905c-3.842226491176916,6.262996261851185-7.684477734162101,12.525977338906159-11.526704225343565,18.788973600754616l8.634706851476039-4.952808519270548c-9.298778796406623.371306225292756-18.603929862269979.550508125768829-27.910109503765852.537352063077378-5.231001111594196-.00739501935459-10.241650058906089,4.604835954363807-10,10,.242957424148699,5.424352741001712,4.393702570228015,9.992074427606894,10,10,8.591602548681294.012145871464782,17.182977186247626-.136405760496928,25.768745721939922-.454580862136936,2.488177371842539-.092207946777307,4.943510943649017-.134288120010751,7.188555262555383-1.448064349464403,2.296872804303348-1.344105711838893,3.539218287013682-3.508791003358965,4.868259027842214-5.675181621119918,1.109977778692155-1.80930905412697,2.219957307223012-3.618617034760064,3.329937247702219-5.427924762668226,2.305342993325212-3.757793038584168,4.610687587926805-7.515585094813105,6.916023320545719-11.273382587713058,1.681125721086573-2.740308030003689,2.071982121704423-7.400008359216372,0-10.094382961458905-3.415467117508342-4.441422423393306-6.83093535523858-8.882843985332329-10.246403257579004-13.324265805186769-1.707733379753336-2.220710166865501-3.414262138311642-4.442352759268033-5.123202334983034-6.662134316828087-.612440851524298-.795513447433223-1.186962734645931-1.67714498919031-1.86500400641944-2.415766832541522-1.134766001775461-1.236153300536898-2.8280901947046-2.058930177291586-4.412671689768104-2.571722523664903-1.198171593554434-.387744792382364-2.328078921279484-.35840560984434-3.518689559277846-.35187557601148-.763915635649028.00418977857862-1.52783835106402.007015996145128-2.291762565720092.009063417961443-7.939490060462958.021278923811224-15.879092448297342-.017977361279918-23.818570669823202-.029757797395177-3.905746084337807-.005795266508358-7.811653050562199-.011124579884381-11.717339840425666.015360290975877-2.574935821374311.017460909277361-5.245491110290459,1.103355486558939-7.07106781186576,2.92893218813424-1.734422780364184,1.734422780364184-3.040504619197236,4.580062548789101-2.92893218813424,7.07106781186576.241313221078599,5.387643686060983,4.394602990711974,10.038010783736354,10,10h0Z"/><path class="uuid-7d78b53f-6b52-4f16-8bf1-821788407bf9" d="m91.290931049604296,68.146164503342334c-1.987329868924462-1.148887790310255-3.974659738200899-2.297775580012967-5.961989607301803-3.446663370019451-.845120155008772-.488569231648398-1.686767718024385-.98380571547932-2.535627054101496-1.465861811750983-2.401218344519293-1.363620440112754-5.185583487709664-1.798501715936254-7.880908260959586-1.072430283208632-4.463129197521994,1.202285766471505-7.514138020505925,5.300475929851018-7.565846482236338,9.892972150185415-.003298227598862.292932670417031.000000023988832.586110617465238.000000035978701.879054449967953l.000000331097908,8.089541755166465c.000000011989869.292944300947966-.003308499650302.586122241817066.000000035978701.879054449967953.051084793811242,4.522962159478993,3.064489551888073,8.626774146495336,7.4555128862321,9.862189998026224,2.728613122101706.767696194499877,5.553300144068089.340164803759762,7.991241872206047-1.041648163788523.849238306418556-.481343951253621,1.690526843629414-.977304295158319,2.535626934100037-1.465862019851556l4.296720941392778-2.483961640092275,1.40953974948934-.814863873097238c.083609302045261-.048335068036067.167838053599553-.095753732498451.250890487039214-.14504138252596,2.267539507735819-1.345676328240188,3.970250692280388-3.517861906752842,4.685743007370547-6.065370290478313,1.011424878892285-3.601175448215145-.046721699389309-7.397893434480466-2.657028545149842-10.037470928890798-.905771717148127-.975164268535082-1.978529720631741-1.664391195748067-3.218274010451751-2.067680781638046-1.191731718690789-.626105714130063-2.475996319162732-.913189516295461-3.852793801414009-.861251406496194-1.376797482252186-.051938109799266-2.66106208272322.235145692366132-3.852793801414009.861251406496194-1.23974428982001.403289585889979-2.312502293303623,1.092516513102964-3.218274010451751,2.067680781638046-1.749440176874486,1.905746422921766-3.048221372618173,4.407775602969195-2.92893218813424,7.07106781186576l.357209664469337,2.658396122097656c.475119358052325,1.694048011348059,1.332360199273353,3.164938574604093,2.571722523664903,4.412671689768104l.085306012413639.086262590495608-2.571722523664903-4.412671689768104.028435340828764.11087220105037v-5.316792244195312l-.028435331757464.110872203381405,2.571722523664903-4.412671689767194-.085306005348684.086262597491441,2.023876331136307-1.56363903961028c-2.496454966696547,1.443216457185372-4.992909933606825,2.886432914001489-7.489364900409782,4.329649371002233-.355381183610916.205448117237211-.710762367229108.410896234462598-1.066143550833658.616344351710723l2.388795358631796-1.008083484054623-.117428460868723.030878969998412h5.316792244195312l-.110333616508797-.030782133802859,4.412671689768104,2.571722523664903-.081870349020392-.080114247451093,2.571722523665812,4.412671689767194-.032038658402598-.117117370948108.357209664469337,2.658396122097656c-.000000117715899-2.886432709123255-.000000236278538-5.772865418245601-.000000354417352-8.659298127367947-.000000016818376-.410896205308745-.000000033695869-.821792410617491-.000000050453309-1.232688615925326l-.357209664469337,2.658396122097656.032038648810158-.117117373562905-2.571722523664903,4.412671689768104.081870342452021-.080114254153159-4.412671689768104,2.571722523664903.110333613979492-.030782142843236h-5.316792244195312l.117428463390752.030878960366863-2.388795358631796-1.008083484054623c2.496455084788977,1.443216252396269,4.992910169903553,2.88643250422956,7.48936525485442,4.329648756345705.355381200430202.205448088070625.710762400891326.41089617608668,1.066143601290605.616344264211875,1.147838957087515.730771771834952,2.387170096981208,1.12633454393108,3.717993419681079,1.186688316289292,1.329198061048373.297674720391115,2.658396122096747.238139776312892,3.98759418314603-.178604832234669,1.301327727201169-.309389451188508,2.434905568601607-.906023785808429,3.400733524199495-1.789903003859763,1.088644380822188-.70511330455156,1.947170115881818-1.640345254864769,2.575577205178888-2.805695850941447,1.226184743941303-2.320800516491545,1.84083382206245-5.132302753809199,1.008083484054623-7.705587602827109-.800836587091908-2.474668051210756-2.29893687162712-4.648596114810061-4.59559885480121-5.976310729378383Z"/><path class="uuid-7d78b53f-6b52-4f16-8bf1-821788407bf9" d="m110.434133279680282,126.91144332645672c1.987329493613288,1.148888439519396,3.974658987300245,2.297776878910554,5.961988480949913,3.446665318367195.845119994883134.488569507561806,1.686767387291184.983806283977174,2.53562657506518,1.465862640381602,2.401217617182738,1.363621001155479,5.185584238633965,1.798501545030376,7.880908239931159,1.072430340501342,4.463130181137785-1.202285997908803,7.514136724824311-5.300475644168728,7.565846563994455-9.892972076903789.003298315297798-.292932669754919.000000167548933-.586110617103259.000000251291567-.879054449967953l.000002312522156-8.089541755166465c.000000083743544-.292944300587806.00330869924619-.586122241154044.000000251292477-.879054449967953-.051083437821944-4.522961969452808-3.064490516650949-8.62677444208839-7.455512814532995-9.862190035250933-2.728613926868093-.767696441576845-5.553299396961847-.34016434566729-7.991241883175462,1.041648070437986-.849238453564794.481343692891642-1.690527162439139.977303742375625-2.535627413135444,1.465861191221848l-4.296721753138627,2.483960235946142-1.409540015783023.814863412466366c-.083609317739501.04833504065482-.167838086358643.095753675396736-.250890534437531.145041300536832-2.267539596413371,1.345675464145643-3.970250916600889,3.517862640940621-4.685743036474378,6.06537026101887-1.011425183691244,3.601176436506648.0467221631352,7.397892307770235,2.657028444494244,10.03747095676863.905771717148127.975164268535991,1.978529720631741,1.664391195748067,3.218274010451751,2.067680781637137,1.191731718690789.626105714130972,2.475996319161823.91318951629637,3.852793801414009.861251406497104,1.376797482252186.051938109799266,2.66106208272322-.235145692366132,3.852793801414009-.861251406497104,1.23974428982001-.40328958588816,2.312502293304533-1.092516513101145,3.218274010451751-2.067680781637137,1.749440176874486-1.905746422921766,3.048221372618173-4.407775602970105,2.92893218813424-7.07106781186576l-.357209664469337-2.658396122097656c-.475119358052325-1.694048011348059-1.332360199273353-3.164938574604093-2.571722523664903-4.412671689768104l-.085305984222941-.08626261837253,2.571722523664903,4.412671689767194-.028435304596314-.110872210342677v5.316792244195312l.028435367989914-.110872194089097-2.571722523664903,4.412671689768104.085306033538473-.086262569614519-2.023876331136307,1.56363903961028c2.496455438391422-1.443215641254028,4.992910876877431-2.886431282344347,7.489366315316147-4.32964692351652.355381250750725-.205448001099285.710762501507816-.410896002187656,1.066143752252174-.616344003299673l-2.388795358631796,1.008083484054623.117428470959567-.030878931623192h-5.316792244195312l.110333606449785.030782169858867-4.412671689768104-2.571722523664903.081870322838768.080114274206608-2.571722523664903-4.412671689768104.032038620128333.117117381418211-.357209664469337-2.658396122097656c-.000000825411917,2.886432709122346-.000001650264494,5.772865418245601-.000002475396286,8.659298127368857-.000000117461241.410896205307836-.000000234882464.821792410615672-.000000352383722,1.232688615924417l.357209664469337-2.658396122097656-.032038687083514.117117363092802,2.571722523664903-4.412671689768104-.081870368632735.080114227398553,4.412671689768104-2.571722523664903-.110333624038503.030782106786319h5.316792244195312l-.117428453299908-.030878998741173,2.388795358631796,1.008083484054623c-2.496454613268725-1.443217068024751-4.992909226631127-2.886434135888521-7.489363839947146-4.329651203832327-.355381133290393-.205448204207642-.710762266588063-.41089640840255-1.06614339987209-.616344612622015-1.147838957087515-.730771771834952-2.387170096981208-1.12633454393108-3.717993419681079-1.186688316289292-1.329198061048373-.297674720391115-2.658396122097656-.238139776313801-3.98759418314603.178604832234669-1.301327727201169.309389451188508-2.434905568601607.906023785808429-3.400733524199495,1.789903003859763-1.088644380823098.70511330455065-1.947170115881818,1.640345254864769-2.575577205178888,2.805695850941447-1.226184743941303,2.320800516490635-1.84083382206245,5.132302753810109-1.008083484054623,7.705587602827109.80083673757963,2.474668516232668,2.2989370406749,4.648595211535394,4.59559885480121,5.976310729378383Z"/><path class="uuid-7d78b53f-6b52-4f16-8bf1-821788407bf9" d="m110.206775760942946,126.714309748281266c2.697843936152822,1.559641580117386,5.395687872505732,3.119283159888255,8.093531808758598,4.678924739833747.381549116852511.220576090201575.763098233717756.441152180379504,1.144647350555715.661728270605636,3.099828463277845,1.792031517380565,6.996113502498702,1.813074572000914,10.094382961458905,0,3.041444317972491-1.779821099525179,4.952807513284824-5.109398845789656,4.952808519270548-8.634706851476039.000000888157956-3.112398392740033.000001776797944-6.224796785480066.000002665196007-9.337195178220099.000000127886779-.448035184991568.000000255808118-.896070369984045.000000383659426-1.344105554975613.000001005985723-3.525307411566246-1.911365539950566-6.854886535315927-4.952808519270548-8.634706851476039-3.098270815830801-1.813075366027078-6.994552975855186-1.792030031138893-10.094382961458905,0-2.697844826753681,1.559640035534358-5.395689653232694,3.119280071544381-8.093534479849041,4.678920107316117-.381549242772962.220575871813708-.763098485527735.441151743661067-1.144647728320706.661727615440213-1.165350596076678.62840708929707-2.100582546390797,1.4869328243567-2.805695850941447,2.575577205177979-.883879218051334.965827955598797-1.480513552671255,2.099405796999235-1.789903003859763,3.400733524200405-.41674460854756,1.329198061048373-.476279552625783,2.658396122096747-.178604832234669,3.987594183146939.060353772358212,1.330823322698961.45591654445434,2.570154462592654,1.186688316289292,3.71799341968017,1.376607830308785,2.135225095966234,3.426481592015989,4.014829237528829,5.976310729378383,4.59559885480121l2.658396122097656.357209664469337c1.805080536633795-.005610441705358,3.487477696877249-.460708157880617,5.047191480729452-1.365293148523961,2.697844826753681-1.559640035534358,5.395689653232694-3.119280071543471,8.093534479849041-4.678920107316117.381549242772962-.220575871813708.763098485527735-.441151743661067,1.144647728320706-.661727615440213l-15.047191480729452-8.634706851476039c-.000000888157956,3.112398392740033-.000001776797944,6.224796785480066-.000002665196007,9.337195178220099-.000000127885869.448035184991568-.000000255808118.896070369984045-.000000383659426,1.344105554975613l15.047191480729452-8.634706851476039c-2.697843936153731-1.559641580117386-5.395687872505732-3.119283159888255-8.093531808758598-4.678924739833747-.381549116851602-.220576090201575-.763098233718665-.441152180379504-1.144647350555715-.661728270605636-1.147838957087515-.730771771834043-2.387170096981208-1.12633454393108-3.717993419681079-1.186688316289292-1.329198061048373-.297674720392024-2.658396122097656-.238139776312892-3.98759418314603.178604832234669-1.301327727201169.309389451188508-2.434905568601607.906023785809339-3.400733524199495,1.789903003859763-1.088644380823098.70511330455065-1.947170115881818,1.640345254864769-2.575577205178888,2.805695850941447-1.226184743941303,2.320800516490635-1.84083382206245,5.132302753810109-1.008083484054623,7.705587602827109.800836737693317,2.474668516582824,2.29893704080223,4.648595210856001,4.59559885480121,5.976310729378383Z"/><path class="uuid-7d78b53f-6b52-4f16-8bf1-821788407bf9" d="m94.347553580312706,86.978006514505068c10.613152741377235.00000313172859,21.226305482754469.0000000468699,31.839458224132613,0l-8.634706851476039-15.047191480729452c-10.098862935370562,21.896450441398883-20.163892084715371,43.808527223014607-30.219265937533237,65.724977279311133-2.309319187661458,5.033336341466566-4.617811229308245,10.06705232655986-6.924889258697476,15.101416351209991-.904584990643343,1.559713783852203-1.359682706817694,3.242110944095657-1.365293148523961,5.047191480729452.005610441706267,1.805080536633795.460708157880617,3.487477696877249,1.365293148523961,5.047191480729452,1.779820716436006,3.041443663330028,5.109399136332286,4.95280849719984,8.634706851476039,4.952808519270548,11.150610347093789.000000069810085,22.30122059004043.000159715720656,33.451830888085169.001284913161726,5.2307924058141.000527834268723,10.241870096649109-4.599923314461194,10-10-.242694024576849-5.418471989699356-4.393826639928193-9.999434286397445-10-10-11.15061029806202-.00112519744107-22.301220540995018-.001284843351641-33.451830888085169-.001284913161726l8.634706851476039,15.047191480729452c9.631743943774381-21.017800259674004,19.280578293120016-42.027793815249424,28.946082211789872-63.030089729392785,2.730489436977223-5.933115089329476,5.462698602370438-11.865439210817385,8.198072984440842-17.79630390112834.904584990643343-1.559713783852203,1.359682706818603-3.242110944094748,1.365293148523961-5.047191480729452-.005610441705358-1.805080536633795-.460708157880617-3.487477696877249-1.365293148523961-5.047191480729452-1.779820701781318-3.041443638288001-5.10939914744722-4.952808534839278-8.634706851476039-4.952808519270548-10.613152741378144.0000000468699-21.226305482754469.00000313172859-31.839458224132613,0-5.230776047428662-.000001543497092-10.241886960532611,4.599546805472528-10,10,.242673837133225,5.41802127774281,4.393836466571884,9.999998345733729,10,10h0Z"/><path class="uuid-1d2d0f06-36be-4c5e-ad98-00b96036be47" d="m130.000107179518636,151.328369627316533c-2.697844445267947-1.559640697151735-5.395688890539532-3.119281394296195-8.093533335808388-4.678922091445202l-1.144647566521598-.661727896050252c-2.324872000141113-1.344023000824563-5.247084545129837-1.359806269431829-7.570787221095088,0-2.281082664443602,1.334865488724972-3.7146064977278,3.832049389108761-3.714606389452456,6.476030138606802.000000127457497,3.112398392740033.000000254774022,6.224796785480066.000000382162398,9.337195178220099.000000018338142.448035184991568.000000036665369.896070369984045.000000055013516,1.344105554975613.000000108275344,2.643980813441885,1.433523580928522,5.141164565568033,3.714606389452456,6.476030138606802,2.323702530129594,1.359806184090303,5.245915384572982,1.344023160565484,7.570787221095088,0,2.697844317639465-1.559640918500008,5.395688635197985-3.11928183713826,8.093532952799251-4.678922755705571.381549170784638-.220575996664593.763098341563818-.44115199333919,1.144647512354823-.661727989994688,1.627559712814218-.940902597236345,2.948488844907843-2.673052099609777,3.446699141100908-4.482233047033333.312558456410443-.99689854578628.357209664469337-1.99379709157347.133953624175774-2.990695637360659-.045265329268659-.998117492023084-.341937408340527-1.927615846943809-.890016237217424-2.788495064760355-1.032455872731589-1.601418821974221-2.569861194011537-3.011121928146167-4.482233047033333-3.446699141100908-1.975142122016223-.449874274888316-3.993820516693631-.276071219757796-5.779190702121014.756062613041649-2.697844317639465,1.559640918500008-5.395688635198894,3.119281837137351-8.093532952799251,4.678922755705571-.381549170784638.220575996664593-.763098341563818.44115199333919-1.144647512354823.661727989994688l11.285393610547544,6.476030138606802c-.000000127457497-3.112398392740033-.000000254774022-6.224796785480066-.000000382162398-9.337195178220099-.000000018338142-.448035184991568-.000000036665369-.896070369984045-.000000055013516-1.344105554975613l-11.285393610547544,6.476030138606802c2.697844445267947,1.559640697151735,5.395688890539532,3.119281394296195,8.093533335808388,4.678922091444292l1.144647566521598.661727896051161c1.690324834134117.977187327218417,3.892998118331889,1.275480290517407,5.779190702121014.756062613041649,1.739692918304172-.479074757749913,3.625001307283128-1.824216171716216,4.482233047033333-3.446699141100908.919638557956205-1.740600387368431,1.380625366547974-3.849227065357809.756062613041649-5.779190702121014-.60062744026709-1.856001038245267-1.72420265366236-3.486447086422231-3.446699141100908-4.482233047033333Z"/><path class="uuid-1d2d0f06-36be-4c5e-ad98-00b96036be47" d="m83.178163713170761,69.652635081817607c-9.985753283184749-.075999176691766-19.970991637314-.151691015521465-29.957048407391994-.174625051483417-2.998743714720149-.006886932226735-5.70628340786061,1.890583432214044-6.854061445127627,4.610404648939948-1.168516986454051,2.768965068741636-.578935763312074,6.022255872307142,1.550760586228535,8.192896209959144.092071336603112.095239715549724.185035108740522.189595485560858.278891316411318.283067310032493,2.77786207671943,2.778072404329578,7.866574151480563,2.984839265864139,10.606601717798185,0,2.808572990308676-3.05950897924231,2.886155414646055-7.562938838086666,0-10.606601717798185-.09112692196959-.096100032704271-.183117157724155-.191581476811734-.278891316411318-.283067310032493-2.838911891248245-2.711798499411088-7.823640624384097-3.031608750622581-10.606601717798185,0-2.783784943003411,3.032506208237464-2.918657643478582,7.595372407301511,0,10.606601717798185,6.341029893220366,6.54214964741368,12.682052040255257,13.084306802873471,19.023081933475623,19.626456450287151l-1.17272927970771-9.088694469445727c-5.207375511758983,7.130775942782748-10.414748504949785,14.261553724795704-15.622124016708767,21.392329667578451,4.317353425737565,2.523595740365636,8.634706851476039,5.047191480729452,12.952060277213604,7.570787221095088.556104701435288-.761508238379065,1.112235527836674-1.522997407137154,1.668310384219694-2.284527439904195,1.080066025930137-1.479122292035754,1.221352710070278-4.089554849541855.75606261304074-5.779190702120104-.479074757748094-1.739692918303263-1.824216171715307-3.625001307284037-3.446699141100908-4.482233047033333-1.740600387367522-.919638557955295-3.849227065356899-1.380625366547065-5.779190702120104-.756062613041649-1.96358914015309.635444428468873-3.269883998771547,1.786737849669407-4.482233047033333,3.446699141100908-.556144568723539.761479095352115-1.11228025750097,1.522964775263063-1.668310384219694,2.284527439903286-1.536795332161091,2.104860675580312-1.24932923039978,5.435873049053043,0,7.570787221095088,1.335271542556256,2.281776548856215,3.831741628663622,3.713563484383485,6.476030138606802,3.714606389452456,13.58353825260383.005357335573535,27.167076498975803.010730459356637,40.750614751579633.016087796523607,3.923129871030142.001547279440274,7.681365678487055-3.450766194236166,7.5-7.5-.182064683390308-4.064840034636291-3.295348675562309-7.498341688712571-7.5-7.5-13.58353825260383-.00535733716697-27.167076498975803-.010730460950072-40.750614751579633-.016087796523607l6.476030138606802,11.285393610547544c.556030126697806-.761562664612939,1.112165815442495-1.523048344479321,1.668310384219694-2.284527439904195l-12.952060277213604-7.570787221094179c-.556074856227497.76153003255331-1.112205683052707,1.523019201892566-1.668310384219694,2.284527439903286-1.080099257600523,1.479046087555616-1.221333422127827,4.089624891005769-.756062613041649,5.779190702121014.479074757749913,1.739692918303263,1.824216171716216,3.625001307283128,3.446699141100908,4.482233047033333,1.740600387369341.919638557956205,3.849227065357809,1.380625366547065,5.779190702121014.756062613041649,1.963540307524454-.635428625559143,3.269986553475974-1.786696302155178,4.482233047033333-3.446699141100908,5.207375511758983-7.130775942783657,10.414748504949785-14.261553724796613,15.622124016708767-21.39232966758027.958422317662553-1.312425960136352,1.094876626497353-3.257697167442529.890016237217424-4.782292156332915-.2211489013971-1.6458160020793-.884482717227002-3.090768308949919-2.062745516925133-4.306402313112812-6.341029893220366-6.54214964741368-12.682052040255257-13.084306802873471-19.023081933475623-19.626456450287151l-10.606601717798185,10.606601717798185c.095774158687163.091485833220759.187764394441729.186967277327312.278891316411318.283067310032493l10.606601717798185-10.606601717798185c-.093856207670797-.093471824470726-.186819979808206-.18782759448186-.278891316411318-.283067310032493l-5.303300858899092,12.803300858899092c9.986056755726167.022934035928301,19.97129512315496.098625874784375,29.957048407391994.174625051483417,3.923900642897934.029863868035136,7.680458489563534-3.471020412613143,7.5-7.5-.183150585484327-4.089084265971906-3.294915691955794-7.467996110432068-7.5-7.5h0Z"/><path class="uuid-1d2d0f06-36be-4c5e-ad98-00b96036be47" d="m121.187497403633643,125.598745596024855c12.895784691649169-.087447665565378,25.792181820361293.087447665560831,38.687966513149149,0l-6.476030138606802-3.714606389452456c5.223655980478725,6.792764212205839,10.447314578894293,13.585526411212413,15.670970559371199,20.378290623419161v-7.570787221093269c-3.842226491177826,6.262996261850276-7.684477734163011,12.52597733890525-11.526704225343565,18.788973600754616l6.476030138606802-3.714606389453365c-9.298778796406623.371306225292756-18.603929862270888.550508125768829-27.910109503765852.537352063077378-3.92325083369542-.005546264515942-7.681237544178657,3.453626965772855-7.5,7.5.182218068111069,4.068264555750829,3.295276927671694,7.494055820705398,7.5,7.5,8.591602548681294.012145871464782,17.182977186247626-.136405760496928,25.768745721939922-.454580862136936,2.034313955422476-.075388481163827,4.094448390331308-.03449318213643,5.926757392373474-1.10674106233364,1.888727519359236-1.105263400794684,2.874982181633641-2.991129311741133,3.971380185154885-4.778302778433499,1.109977778693064-1.80930905412697,2.219957307223012-3.618617034759154,3.329937247702219-5.427924762667317,2.305342993326121-3.757793038584168,4.610687587926805-7.515585094814014,6.916023320545719-11.273382587713968,1.26084429081493-2.055231022502994,1.553986591277862-5.550006269411824,0-7.570787221093269-3.415467117508342-4.441422423393306-6.830935355237671-8.882843985332329-10.246403257579004-13.324265805186769-1.707733266288415-2.220710019317266-3.414187366823171-4.442410565655337-5.123202334982125-6.662134316828997-.484755517654776-.629616098218321-.937519426399376-1.325281881430783-1.47409424651778-1.909797749756763-.851074501330913-.927114975402219-2.121067646028678-1.544197632968462-3.309503767325623-1.928791892749359-.945439284082568-.305957144109016-1.894476263154502-.2678362689403-2.854090528753659-.262573159893691-.763915635649028.00418977857862-1.52783835106402.007015996145128-2.291762565720092.009063417961443-7.939490060462958.021278923811224-15.879092448297342-.017977361279918-23.818570669823202-.029757797395177-3.905746084337807-.005795266508358-7.811653050562199-.011124579884381-11.717339840425666.015360290975877-3.922165877193038.026596617276482-7.682267618482911,3.430629165273785-7.5,7.5.180984915808949,4.040732764546192,3.295952243033753,7.528508087802038,7.5,7.5h0Z"/><path class="uuid-1d2d0f06-36be-4c5e-ad98-00b96036be47" d="m90.212001933062311,70.304841216211571c-1.987329868925372-1.148887790311164-3.974659738201808-2.297775580013877-5.961989607302712-3.446663370019451-.845061712554525-.488535445701018-1.685758573703424-.985715893534689-2.535627054101496-1.465861811750983-1.81980844494683-1.028128018548159-3.909962324790285-1.367322213541229-5.954511360252582-.820409412194749-3.389163956961966.906594619044881-5.679892202394512,4.003437669002778-5.730445512760525,7.482274566302294-.004255974405169.292875791657025.000000023990651.586160068844038.000000035978701.879054449967953l.000000331097908,8.089541755166465c.00000001198805.292895179078187-.004268921665243.586179407353484.000000035978701.879054449967953.049800315762695,3.41658803271639,2.29768623768814,6.510459346403877,5.620111916756287,7.451492414143104,2.077956309961337.588553602059619,4.208264758960468.256726396151862,6.064844971499042-.789627292774639.85033726563961-.479243249886167,1.690597722167695-.977345270490332,2.535626934100037-1.465862019851556l4.296720941392778-2.483961640092275,1.40953974949025-.814863873097238c.083595190892083-.048326910288779.168018012162975-.095482235241434.250890487039214-.14504138252596,1.708502014706028-1.02171321791775,2.992850297163386-2.646243302222501,3.536843293669335-4.571292608133263.772683359128678-2.734324841924717-.033340551621222-5.60213638071582-2.014097914233389-7.605104945399944-1.347750453162007-1.362863438842396-3.39127023196852-2.196699141100908-5.303300858899092-2.196699141100908-1.032598111688458-.038953582349677-1.995796562042415.176359269274144-2.889595351060052.645938554872373-.929808217365462.302467189417257-1.734376719978172.819387384826769-2.41370550783904,1.550760586228535-1.312080132655865,1.429309817191097-2.286166029463857,3.305831702226897-2.196699141100908,5.303300858899092.089392491713625,1.995808150952143.766575972749706,3.857141019283517,2.196699141100908,5.303300858899092l.085306012413639.086262590495608-1.928791892749359-3.309503767325623.028435340828764.11087220104946v-3.98759418314603l-.028435331757464.110872203382314,1.928791892749359-3.309503767326532-.085306005348684.08626259749235,1.517907248351548-1.17272927970771c-2.496454966695637,1.443216457185372-4.992909933605915,2.886432914002398-7.489364900408873,4.329649371002233-.355381183610916.205448117237211-.710762367230018.410896234461688-1.066143550834568.616344351710723l1.791596518974075-.75606261304074-.117428460867814.030878969997502h3.98759418314603l-.110333616508797-.030782133802859,3.309503767325623,1.928791892749359-.081870349019482-.080114247452002,1.92879189274845,3.309503767326532-.032038658401689-.117117370949018.267907248351548,1.99379709157347c-.000000117715899-2.886432709123255-.000000236278538-5.772865418245601-.000000354417352-8.659298127367947-.000000016818376-.410896205308745-.000000033695869-.821792410617491-.000000050453309-1.232688615925326l-.267907248351548,1.99379709157347.032038648810158-.117117373562905-1.928791892749359,3.309503767325623.081870342452021-.080114254153159-3.309503767325623,1.928791892749359.110333613978582-.030782142843236h-3.98759418314603l.117428463390752.030878960365953-1.791596518974075-.75606261304074c2.496455084788977,1.443216252396269,4.992910169903553,2.886432504231379,7.48936525485442,4.329648756346614.355381200430202.205448088069716.710762400892236.410896176085771,1.066143601290605.616344264210966,1.690324833829436.977187327383945,3.892998118619289,1.275480290438281,5.779190702121014.75606261304074.975995795401104-.232042088391609,1.826179176450751-.679517839355867,2.550550143149849-1.342427252894595.816483285616414-.528834978414125,1.460377586910909-1.230258941149259,1.931682903883484-2.104271888206313.919638557956205-1.740600387367522,1.380625366547974-3.849227065356899.756062613041649-5.779190702120104-.60062744031984-1.856001038407157-1.724202653720567-3.486447086106637-3.446699141100908-4.482233047033333Z"/><path class="uuid-1d2d0f06-36be-4c5e-ad98-00b96036be47" d="m111.878799903502113,124.752766613587482c1.987329493613288,1.148888439520306,3.974658987300245,2.297776878911463,5.961988480949913,3.446665318368105.845061552136031.488535721418884,1.685758239901588.985716466790109,2.53562657506609,1.465862640380692,1.819807917270737,1.028128442953857,3.909962854415426,1.367322103225888,5.954511339224155.820409469488368,3.389164677651024-.906594778160979,5.679891267966923-4.003437439720074,5.730445594518642-7.482274493021578.00425605975397-.292875790959442.000000167562575-.586160068241043.000000251291567-.879054449967953l.000002312522156-8.089541755166465c.000000083728992-.29289517847883.004269123619451-.586179406654992.000000251292477-.879054449967953-.049799318449004-3.416587901799176-2.297686918915133-6.510459563547556-5.620111845058091-7.451492451367812-2.077956891237591-.588553787548335-4.208264212165886-.256726074244398-6.064844982467548.789627199424103-.850337409459826.479242996772882-1.690598040620898.977344717471169-2.535627413135444,1.465861191221848l-4.296721753138627,2.483960235946142-1.409540015783023.814863412466366c-.083595206515383.048326882872061-.168018045314057.095482177445774-.25089053443844.145041300536832-1.708502089735703,1.021712588351875-2.992850461958369,2.646243821202006-3.536843322773166,4.57129257867382-.772683594675073,2.734325578501739.033340880754622,5.602135533992623,2.014097813577791,7.605104973277776,1.347749731369731,1.362863599771117,3.391270876151793,2.196699141100908,5.303300858899092,2.196699141100908,1.032598111689367.038953582349677,1.995796562042415-.176359269275054,2.889595351060052-.645938554872373.929808217365462-.302467189417257,1.734376719979082-.819387384825859,2.41370550783904-1.550760586228535,1.312080132655865-1.429309817191097,2.286166029463857-3.305831702226897,2.196699141100908-5.303300858899092-.08939250842559-1.995808524074164-.766576286406234-3.857140391196481-2.196699141100908-5.303300858899092l-.085305984222941-.086262618373439,1.928791892749359,3.309503767326532-.028435304597224-.110872210342677v3.98759418314603l.028435367990824-.110872194089097-1.928791892749359,3.309503767325623.085306033538473-.086262569614519-1.517907248352458,1.17272927970771c2.496455438392331-1.443215641254028,4.992910876877431-2.886431282344347,7.489366315316147-4.329646923515611.355381250750725-.205448001100194.710762501508725-.410896002188565,1.066143752252174-.616344003300583l-1.791596518973165.75606261304074.117428470959567-.030878931622283h-3.987594183146939l.110333606449785.030782169858867-3.309503767326532-1.928791892749359.081870322839677.080114274206608-1.928791892749359-3.309503767325623.032038620129242.117117381418211-.267907248352458-1.99379709157347c-.000000825411917,2.886432709122346-.000001650264494,5.772865418245601-.000002475396286,8.659298127368857-.000000117461241.410896205307836-.000000234882464.821792410615672-.000000352383722,1.232688615924417l.267907248351548-1.99379709157347-.032038687083514.117117363092802,1.928791892749359-3.309503767325623-.081870368632735.080114227398553,3.309503767325623-1.928791892749359-.110333624038503.030782106787228h3.987594183146939l-.117428453299908-.030878998741173,1.791596518973165.75606261304074c-2.496454613268725-1.443217068024751-4.992909226631127-2.886434135888521-7.489363839946236-4.329651203832327-.355381133290393-.205448204207642-.710762266588063-.41089640840346-1.06614339987209-.616344612622015-1.690324176495778-.977187684104138-3.892998738623646-1.275480119702479-5.779190702121014-.756062613041649-.975995795401104.232042088391609-1.826179176450751.679517839356777-2.550550143149849,1.342427252895504-.816483285616414.528834978413215-1.460377586910909,1.23025894114835-1.931682903883484,2.104271888205403-.919638557956205,1.740600387369341-1.380625366547065,3.849227065357809-.756062613041649,5.779190702121014.600627553185404,1.856001387174729,1.724202780506857,3.486446408651318,3.446699141100908,4.482233047033333Z"/><path class="uuid-1d2d0f06-36be-4c5e-ad98-00b96036be47" d="m111.651442384764778,124.555633035412029c2.697843936153731,1.559641580117386,5.395687872506642,3.119283159888255,8.093531808759508,4.678924739833747.381549116851602.220576090202485.763098233717756.441152180379504,1.144647350554806.661728270605636,2.324871347458611,1.344023638035651,5.247085126873571,1.359805929001595,7.570787221095088,0,2.281083238478459-1.334865824644112,3.714605634962936-3.832049134342924,3.714606389452456-6.476030138606802.000000888157956-3.112398392740033.000001776797944-6.224796785480066.000002665196007-9.337195178220099.000000127886779-.448035184991568.000000255808118-.896070369984045.000000383659426-1.344105554975613.00000075448952-2.643980558675139-1.43352415496247-5.141164901486263-3.714606389452456-6.476030138606802-2.323703111873328-1.359806524520536-5.245914731891389-1.344022523354397-7.570787221095088,0-2.697844826753681,1.559640035534358-5.395689653231784,3.119280071544381-8.093534479848131,4.678920107316117-.381549242773872.220575871813708-.763098485527735.441151743660157-1.144647728321615.661727615440213-1.627559680672675.940901868419132-2.948489010840603,2.673052702169116-3.446699141100908,4.482233047033333-.312558456410443.99689854578719-.357209664469337,1.99379709157347-.133953624175774,2.99069563735975.045265329268659.998117492024903.341937408341437,1.927615846945628.890016237217424,2.788495064760355,1.032455872731589,1.601418821974221,2.569861194011537,3.011121928147986,4.482233047033333,3.446699141100908,1.975142488317942.449874358320812,3.993819985242226.276070747891936,5.779190702121014-.75606261304074,2.697844826753681-1.559640035534358,5.395689653231784-3.119280071543471,8.093534479848131-4.678920107316117.381549242773872-.220575871813708.763098485528644-.441151743660157,1.144647728321615-.661727615440213l-11.285393610547544-6.476030138606802c-.000000888157956,3.112398392740033-.000001776797944,6.224796785480066-.000002665196007,9.337195178220099-.000000127885869.448035184991568-.000000255808118.896070369984045-.000000383659426,1.344105554975613l11.285393610547544-6.476030138606802c-2.697843936153731-1.559641580117386-5.395687872505732-3.119283159889164-8.093531808759508-4.678924739833747-.381549116851602-.220576090201575-.763098233717756-.441152180379504-1.144647350554806-.661728270605636-1.690324176001013-.977187684372439-3.892998739091126-1.275480119573331-5.779190702121014-.75606261304074-1.739692918303263.479074757748094-3.625001307283128,1.824216171715307-4.482233047033333,3.446699141100908-.919638557956205,1.740600387367522-1.380625366547065,3.849227065356899-.756062613041649,5.779190702120104.600627553270897,1.856001387437573,1.724202780602354,3.486446408142001,3.446699141100908,4.482233047033333Z"/><path class="uuid-1d2d0f06-36be-4c5e-ad98-00b96036be47" d="m94.530422333952629,84.478006514505068c10.613152741377235.00000313172859,21.226305482754469.0000000468699,31.839458224132613,0l-6.476030138606802-11.285393610547544c-10.098862935370562,21.896450441399793-20.163892084715371,43.808527223015517-30.219265937534146,65.724977279311133-2.309319187660549,5.033336341467475-4.617811229307335,10.06705232655986-6.924889258696567,15.101416351209991-1.148195117455543,2.505520887878447-1.45781077581978,5.079609707816417,0,7.570787221095088,1.33486553732746,2.281082747497749,3.83204935224876,3.714606372899652,6.476030138606802,3.714606389452456,11.150610347093789.000000069810085,22.30122059004043.000159715720656,33.451830888085169.001284913161726,3.923094304360347.000395875701543,7.681402572487059-3.449942485845895,7.5-7.5-.182020518433092-4.063853992274744-3.295369979945463-7.499575714798084-7.5-7.5-11.15061029806202-.00112519744107-22.301220540995018-.001284843351641-33.451830888085169-.001284913161726l6.476030138606802,11.285393610547544c9.631743943774381-21.017800259674004,19.280578293120016-42.027793815249424,28.946082211789872-63.030089729392785,2.730489436977223-5.933115089329476,5.462698602369528-11.865439210817385,8.198072984440842-17.79630390112834,1.153530749346828-2.501096316223993,1.455305628839596-5.083890624056039,0-7.570787221095088-1.334865526336216-2.281082728714864-3.832049360585188-3.714606401128549-6.476030138606802-3.714606389452456-10.613152741378144.0000000468699-21.226305482754469.00000313172859-31.839458224132613,0-3.923082035571497-.000001157623046-7.681415220399685,3.449660104104623-7.5,7.5.182005377850146,4.063515958307107,3.295377349928458,7.49999875930007,7.5,7.5h0Z"/><path class="uuid-b0f9bd33-a3d7-452c-a023-a1c0ae3ad3f2" d="m128.738309309335818,153.569709209808025c-2.697844445267947-1.559640697150826-5.395688890538622-3.119281394296195-8.093533335807479-4.678922091444292l-1.144647566522508-.661727896050252c-3.279751856065559-1.896045000019512-7.523595896128427.513757821629042-7.523595740364726,4.317353425737565.000000127457497,3.112398392740033.000000254774022,6.224796785480066.000000382162398,9.337195178220099.000000018338142.448035184992477.000000036665369.896070369984045.000000055013516,1.344105554975613.000000155763701,3.803595273628162,4.24384374897727,6.213398862775648,7.523595740364726,4.317353425738474,2.697844317639465-1.559640918500008,5.395688635199804-3.11928183713826,8.093532952799251-4.678922755705571.381549170785547-.220575996664593.763098341564728-.4411519933401,1.144647512354823-.661727989994688,1.085039808543115-.627268398158776,1.965659229938865-1.782034733073488,2.297799427400605-2.988155364690101.32958858787606-1.196854818600514.180780796300496-2.790581137845948-.504041742026857-3.8527938014131-1.473225780626308-2.285087001218926-4.417291086237128-3.194889800038254-6.840949166103201-1.793757685373748-2.697844317639465,1.559640918500008-5.395688635199804,3.119281837137351-8.093532952799251,4.678922755705571-.381549170785547.220575996665502-.763098341564728.4411519933401-1.144647512354823.661727989994688l7.523595740364726,4.317353425738474c-.000000127457497-3.112398392740033-.000000254774022-6.224796785480066-.000000382162398-9.337195178220099-.000000018338142-.448035184991568-.000000036665369-.896070369984045-.000000055013516-1.344105554975613l-7.523595740364726,4.317353425737565c2.697844445267947,1.559640697151735,5.395688890538622,3.119281394297104,8.093533335807479,4.678922091445202l1.144647566522508.661727896051161c1.126883222756078.651458218144398,2.595332078887623.850320193677362,3.8527938014131.504041742026857,1.159795278868842-.319383171832669,2.416667538189358-1.216144114477174,2.988155364690101-2.297799427400605,1.261256687892455-2.387181203446744.625200726516596-5.442534223936491-1.793757685373748-6.840949166103201Z"/><path class="uuid-b0f9bd33-a3d7-452c-a023-a1c0ae3ad3f2" d="m83.178163713170761,72.235297951440771c-9.985753283184749-.075999176691766-19.970991637314-.151691015521465-29.957048407391994-.174625051483417-4.364525612987563-.010023594865743-6.553941844606015,5.459096258571662-3.535533905932425,8.535533905932425.092071336603112.095239715550633.185035108739612.189595485560858.278891316410409.283067310032493,1.851908051146893,1.852048269553961,5.244382767653406,1.989892843909729,7.07106781186576,0,1.87238199353942-2.039672652827903,1.924103609763733-5.041959225391111,0-7.07106781186485-.09112692196959-.09610003270609-.183117157723245-.191581476811734-.278891316411318-.283067310032493-1.89260792749883-1.807865666274665-5.215760416255762-2.021072500416267-7.07106781186485,0-1.855856628669244,2.02167080549134-1.945771762319055,5.063581604867068,0,7.07106781186485,6.341029893220366,6.54214964741368,12.682052040255257,13.084306802873471,19.023081933475623,19.626456450287151l-.78181951980514-6.059129646297151c-5.207375511759892,7.130775942783657-10.414748504949785,14.261553724795704-15.622124016708767,21.392329667579361l8.63470685147513,5.047191480729452c.556104701436198-.761508238378156,1.112235527836674-1.522997407136245,1.668310384219694-2.284527439903286,1.54793506893111-2.119856760707989.427987971058428-5.667099621742636-1.793757685372839-6.840949166103201-2.600063248709375-1.373731980062075-5.188563640475877-.468706260133331-6.840949166102291,1.793757685373748-.556144568723539.761479095351206-1.11228025750188,1.522964775263063-1.668310384219694,2.284527439903286-2.306710270415351,3.15936913429141.820367458429246,7.522216532166567,4.317353425737565,7.523595740364726,13.58353825260383.005357335573535,27.167076498975803.010730459356637,40.750614751579633.016087796523607,2.615419914020094.001031519626849,5.120910452325006-2.300510796157141,5-5-.121376455594145-2.709893356423891-2.196899117041539-4.998894459141411-5-5-13.58353825260383-.00535733716697-27.167076498975803-.010730460950072-40.750614751579633-.016087796523607l4.317353425737565,7.523595740364726c.556030126698715-.761562664612029,1.112165815443404-1.523048344478411,1.668310384219694-2.284527439903286l-8.63470685147513-5.047191480729452c-.556074856227497.7615300325524-1.112205683052707,1.523019201891657-1.668310384219694,2.284527439903286-1.548019852667494,2.119798426332636-.427924445050849,5.66713318542952,1.793757685372839,6.840949166103201,2.599959204383595,1.373677008699815,5.188684755537906.468788444315578,6.840949166102291-1.793757685373748,5.207375511759892-7.130775942783657,10.414748504949785-14.261553724795704,15.622124016708767-21.392329667579361,1.305107641305767-1.787163255337873.650671146127934-4.581204378184339-.78181951980514-6.059129646297151-6.341029893220366-6.54214964741368-12.682052040255257-13.084306802873471-19.023081933475623-19.626456450287151l-7.07106781186485,7.07106781186485c.095774158687163.091485833220759.187764394441729.186967277328222.278891316410409.283067310032493l7.07106781186576-7.07106781186485c-.093856207670797-.093471824471635-.186819979807296-.187827594482769-.278891316411318-.283067310032493l-3.535533905932425,8.535533905932425c9.986056755726167.022934035928301,19.97129512315496.098625874784375,29.957048407391994.174625051483417,2.615933761931956.019909245356757,5.12030565970872-2.314013608409368,5-5-.122100390322885-2.726056177314604-2.196610461303862-4.978664073621076-5-5h0Z"/><path class="uuid-b0f9bd33-a3d7-452c-a023-a1c0ae3ad3f2" d="m121.187497403633643,123.181408465648019c12.895784691649169-.087447665565378,25.792181820361293.087447665560831,38.687966513149149,0l-4.317353425738474-2.476404259635274c5.223655980479634,6.792764212206748,10.447314578894293,13.585526411212413,15.670970559371199,20.378290623420071v-5.047191480729452c-3.842226491176916,6.262996261850276-7.684477734162101,12.525977338906159-11.526704225343565,18.788973600754616l4.317353425738474-2.476404259635274c-9.298778796406623.371306225292756-18.603929862270888.550508125768829-27.910109503765852.537352063077378-2.615500555797553-.003697509677295-5.120825029453044,2.302417977181904-5,5,.121478712074349,2.712176370500856,2.196851285114462,4.996037213802992,5,5,8.591602548681294.012145871464782,17.182977186247626-.136405760496928,25.768745721939922-.454580862136936,1.560969978210778-.057847096553814,3.269918582072933.050945452377164,4.664959522190657-.765417775202877,1.452507871550551-.849992269046197,2.224124759035476-2.495275418759775,3.074501342468466-3.88142393574708,1.109977778693064-1.809309054126061,2.219957307223012-3.618617034759154,3.329937247703128-5.427924762667317,2.305342993325212-3.757793038584168,4.610687587926805-7.515585094813105,6.916023320545719-11.273382587713058.840562860543287-1.37015401500139,1.035991060851302-3.700004179608186,0-5.047191480729452-3.415467117508342-4.441422423393306-6.83093535523858-8.882843985331419-10.246403257579004-13.32426580518586-1.707733239511072-2.220709984497262-3.414170351221401-4.442423723128741-5.123202334983034-6.662134316828997-.926988988347148-1.203984066552948-1.784114594970561-2.202519945890344-3.289520331499261-2.689689928805819-.698102349659166-.225915513342443-1.464307391206603-.177248095063987-2.189491498228563-.173270743776811-.763915635649937.00418977857862-1.52783835106402.007015996145128-2.291762565720092.009063417961443-7.939490060462958.021278923811224-15.879092448297342-.017977361279918-23.818570669823202-.029757797395177-3.905746084337807-.005795266508358-7.811653050562199-.011124579884381-11.717339840425666.015360290975877-2.614777251461419.017731078183715-5.121511745654971,2.287086110182827-5,5,.120656610539299,2.693821843031401,2.197301495356442,5.019005391868632,5,5h0Z"/><path class="uuid-b0f9bd33-a3d7-452c-a023-a1c0ae3ad3f2" d="m88.950204062879493,72.546180798703972c-1.987329868924462-1.148887790311164-3.974659738200899-2.297775580013877-5.961989607301803-3.44666337002036-.844919313186438-.4884531237376-1.683985782590753-.989183440433408-2.535627054101496-1.465861811750983-1.237714800285175-.692770412721984-2.635209080787718-.935960811030782-4.028114459546487-.568388541179957-2.314509653904679.610773409342073-3.846632417427827,2.706507867475921-3.895044543284712,5.071576982419174-.005992198301101.292735815267406.000000023995199.586281766719367.000000035978701.879054449967953l.000000331097908,8.089541755166465c.000000011983502.292774339220159-.006009520860971.586320034613891.000000035978701.879054449967953.047420322099242,2.309914130848483,1.531796755817595,4.39451138583172,3.784710947281383,5.040794830260893,1.42646962881372.409204979300739,2.863885272340667.173442051131133,4.138448070792037-.537606421760756.852250996651492-.475450696055304,1.690768838229815-.977444193773408,2.535626934099128-1.465862019851556l4.296720941392778-2.483961640093185,1.40953974949025-.814863873096328c.083559934870209-.048306528559806.168359028842133-.094991769041371.250890487039214-.14504138252596,2.933043820988132-1.778687942522993,3.427516040132105-5.812181339193558,1.016776296652097-8.249953887698211-.898500302108005-.908575625895537-2.260846821312043-1.464466094067575-3.535533905932425-1.464466094067575-1.226336438355247,0-2.691209384364811.54470418506753-3.535533905932425,1.464466094067575-.874720088438153.952873211460428-1.524110686309541,2.203887801484598-1.464466094067575,3.535533905932425.059594994475447,1.330538767301732.511050648499804,2.571427346188102,1.464466094067575,3.535533905932425l.08530601241273.086262590495608-1.285861261832906-2.206335844883142.028435340829674.11087220104946v-2.658396122097656l-.028435331758374.110872203382314,1.285861261832906-2.206335844884052-.085306005347775.08626259749235,1.011938165567699-.78181951980514c-2.496454966696547,1.443216457184462-4.992909933605915,2.886432914001489-7.489364900408873,4.329649371002233-.355381183611826.205448117236301-.710762367230018.410896234461688-1.066143550834568.616344351710723l1.194397679316353-.504041742027766-.117428460868723.030878969997502h2.658396122097656l-.110333616508797-.030782133801949,2.206335844883142,1.285861261831997-.081870349019482-.080114247451093,1.285861261831997,2.206335844884052-.032038658401689-.117117370948108.178604832234669,1.329198061048373c-.000000117715899-2.886432709123255-.000000236278538-5.772865418245601-.000000354417352-8.659298127367947-.000000016818376-.410896205308745-.000000033695869-.821792410617491-.000000050453309-1.232688615925326l-.178604832234669,1.329198061049283.032038648810158-.117117373563815-1.285861261832906,2.206335844884052.081870342452021-.080114254152249-2.206335844883142,1.285861261831997.110333613978582-.030782142842327h-2.658396122097656l.117428463391661.030878960365953-1.194397679316353-.504041742027766c2.496455084788067,1.443216252397178,4.992910169903553,2.886432504231379,7.48936525485442,4.329648756346614.355381200429292.205448088070625.710762400892236.41089617608668,1.066143601290605.616344264210966,1.126883222551442.651458218256266,2.595332079079526.850320193625521,3.8527938014131.504041742027766,1.159795278868842-.319383171832669,2.416667538189358-1.216144114477174,2.988155364690101-2.297799427400605.613092371970197-1.160400258245318.92041691103077-2.5661513769046.504041742026857-3.852793801414009-.400418293546863-1.237334025605378-1.149468435814015-2.324298057404121-2.297799427400605-2.988155364688282Z"/><path class="uuid-b0f9bd33-a3d7-452c-a023-a1c0ae3ad3f2" d="m113.140597773684931,122.676752770342318c1.987329493612378,1.148888439519396,3.974658987299335,2.297776878911463,5.961988480949913,3.446665318367195.844919152050352.4884533989798,1.683985443485653.989184022411791,2.53562657506518,1.465862640380692,1.237714471657455.692770701078189,2.635209390263299.93596076069116,4.02811443851715.568388598474485,2.31451011306126-.610773496582624,3.846631841977796-2.70650769378426,3.895044625043738-5.071576909138457.005992279379825-.292735814685329.000000167598046-.586281765522472.000000251291567-.879054449967953l.000002312522156-8.089541755166465c.000000083694431-.292774338032359.006009727095261-.586320034031814.000000251292477-.879054449967953-.047419681067367-2.309914058200775-1.531797155849745-4.394511524867085-3.784710875582277-5.040794867484692-1.426469986425218-.409205103106615-2.863884925619459-.173441864562847-4.138448081761453.537606328409311-.852251134789185.475450452518999-1.690769155823546.977443640181264-2.535627413135444,1.465861191221848l-4.296721753137717,2.483960235946142-1.409540015783932.814863412466366c-.083559950313429.048306501054867-.168359062766285.094991710002432-.250890534437531.145041300536832-2.933045093974215,1.778687608490145-3.427514781263199,5.812181148399759-1.016776426411525,8.2499538861166.898499820913457.908575733180442,2.260847250767256,1.464466094067575,3.535533905932425,1.464466094067575,1.226336438355247,0,2.691209384364811-.54470418506753,3.535533905932425-1.464466094067575.874720088438153-.952873211460428,1.524110686309541-2.203887801483688,1.464466094067575-3.535533905932425-.059595005616757-1.330539016049443-.51105085760355-2.571426927464017-1.464466094067575-3.535533905932425l-.085305984222032-.086262618373439,1.285861261831997,2.206335844884052-.028435304596314-.110872210342677v2.658396122097656l.028435367989914-.110872194089097-1.285861261831997,2.206335844883142.085306033537563-.086262569614519-1.011938165567699.781819519806049c2.496455438391422-1.443215641254028,4.992910876877431-2.886431282344347,7.489366315316147-4.32964692351652.355381250750725-.205448001100194.710762501508725-.410896002188565,1.066143752252174-.616344003300583l-1.194397679315443.504041742027766.117428470958657-.030878931623192h-2.658396122097656l.110333606449785.030782169859776-2.206335844884052-1.285861261832906.081870322839677.080114274205698-1.285861261832906-2.206335844883142.032038620128333.117117381418211-.178604832234669-1.329198061049283c-.000000825411917,2.886432709122346-.000001650264494,5.772865418245601-.000002475396286,8.659298127368857-.000000117461241.410896205307836-.000000234882464.821792410615672-.000000352383722,1.232688615924417l.178604832234669-1.329198061048373-.032038687083514.117117363091893,1.285861261832906-2.206335844883142-.081870368632735.080114227397644,2.206335844883142-1.285861261832906-.110333624037594.030782106787228h2.658396122096747l-.117428453298999-.030878998741173,1.194397679315443.504041742027766c-2.496454613268725-1.443217068024751-4.992909226631127-2.886434135888521-7.489363839946236-4.329651203833237-.355381133291303-.205448204206732-.710762266588972-.41089640840255-1.066143399872999-.616344612622015-1.126882784329609-.651458456069122-2.595332492415764-.85032007980044-3.8527938014131-.504041742026857-1.159795278868842.319383171832669-2.416667538189358,1.216144114477174-2.988155364690101,2.297799427400605-.613092371970197,1.160400258245318-.92041691103077,2.566151376905509-.504041742026857,3.8527938014131.40041836878936,1.237334258115879,1.149468520337905,2.324297605768152,2.297799427400605,2.988155364690101Z"/><path class="uuid-b0f9bd33-a3d7-452c-a023-a1c0ae3ad3f2" d="m112.913240254947596,122.479619192165956c2.697843936152822,1.559641580118296,5.395687872505732,3.119283159889164,8.093531808758598,4.678924739833747.381549116851602.220576090202485.763098233717756.441152180379504,1.144647350555715.661728270606545,3.279752394843854,1.896046742711405,7.523594654966473-.513759139466856,7.523595740364726-4.317353425738474.000000888157956-3.112398392740033.000001776797944-6.224796785480066.000002665196007-9.337195178220099.000000127885869-.448035184991568.000000255808118-.896070369984045.000000383659426-1.344105554975613.000001085398253-3.803596591463247-4.243844287756474-6.213397120082846-7.523595740364726-4.317353425737565-2.697844826753681,1.559640035533448-5.395689653232694,3.119280071543471-8.093534479848131,4.678920107315207-.381549242774781.220575871813708-.763098485528644.441151743661067-1.144647728321615.661727615441123-1.08503978711542.627267912279422-1.965659340560705,1.782035134779107-2.297799427400605,2.988155364688282-.32958858787606,1.196854818601423-.180780796300496,2.790581137846857.504041742026857,3.852793801414009,1.473226173279727,2.285087610254777,4.417290613544537,3.194889015666377,6.840949166103201,1.793757685372839,2.697844826753681-1.559640035533448,5.395689653232694-3.119280071543471,8.093534479848131-4.678920107315207.381549242773872-.220575871813708.763098485528644-.441151743661067,1.144647728321615-.661727615441123l-7.523595740364726-4.317353425737565c-.000000888157956,3.112398392740033-.000001776797944,6.224796785480066-.000002665196007,9.337195178220099-.000000127885869.448035184991568-.000000255808118.896070369984045-.000000383659426,1.344105554975613l7.523595740364726-4.317353425738474c-2.697843936152822-1.559641580117386-5.395687872505732-3.119283159888255-8.093531808758598-4.678924739833747-.381549116851602-.220576090201575-.763098233717756-.441152180378594-1.144647350555715-.661728270604726-1.126882784000372-.651458456249202-2.595332492726811-.850320079715857-3.8527938014131-.504041742027766-1.159795278868842.319383171832669-2.416667538189358,1.216144114477174-2.988155364690101,2.297799427400605-1.26125703316211,2.387181856938696-.625200281424441,5.442533425659349,1.793757685373748,6.840949166102291Z"/><path class="uuid-b0f9bd33-a3d7-452c-a023-a1c0ae3ad3f2" d="m94.530422333952629,82.060669384128232c10.613152741377235.00000313172859,21.226305482754469.0000000468699,31.839458224132613,0l-4.317353425738474-7.523595740364726c-10.098862935370562,21.896450441398883-20.163892084716281,43.808527223013698-30.219265937533237,65.724977279311133-2.309319187660549,5.033336341467475-4.617811229308245,10.06705232655986-6.924889258697476,15.101416351209991-.765463411637029,1.670347258585025-.971873850546217,3.386406471878217,0,5.047191480729452.889910358218913,1.520721831665469,2.554699568167052,2.476404248599465,4.317353425738474,2.476404259635274,11.150610347093789.000000069810085,22.30122059004043.000159715720656,33.451830888085169.001284913161726,2.615396202907505.000263917134362,5.1209350483241-2.299961657230597,5-5-.121347012288425-2.709235994849223-2.196913319963642-4.999717143198723-5-5-11.15061029806202-.00112519744107-22.301220540995018-.001284843351641-33.451830888085169-.001284913161726l4.317353425738474,7.523595740364726c9.631743943773472-21.017800259674004,19.280578293119106-42.027793815249424,28.946082211789872-63.030089729392785,2.730489436977223-5.933115089329476,5.462698602369528-11.865439210817385,8.198072984440842-17.79630390112834.769020499564249-1.667397544149026.970203752559428-3.389260416037359,0-5.047191480729452-.889910350891114-1.520721819143546-2.554699573724065-2.476404267419639-4.317353425738474-2.476404259635274-10.613152741378144.0000000468699-21.226305482754469.00000313172859-31.839458224132613,0-2.615388023714331-.000000771748091-5.12094348026676,2.299773402735809-5,5,.121336918567067,2.709010638871405,2.196918233285942,4.999999172867319,5,5h0Z"/><path class="uuid-35bf85ea-0f60-44f7-bcb3-f72ee94a2e00" d="m127.741882655461268,155.595181069546015c-2.697844445267037-1.559640697151735-5.395688890537713-3.119281394296195-8.093533335807479-4.678922091445202l-1.144647566522508-.661727896050252c-1.803863559933234-1.04282477261313-4.137977832558136.28256680802042-4.137977746888282,2.374544435622738.000000127457497,3.112398392740033.000000254774022,6.224796785480066.000000382162398,9.337195178220099.000000018338142.448035184991568.000000036665369.896070369984045.000000055013516,1.344105554975613.000000085669853,2.091977445837983,2.334114112528368,3.417369448596219,4.137977746888282,2.374544435622738,2.697844317639465-1.559640918500008,5.395688635199804-3.119281837137351,8.09353295280016-4.678922755704662.381549170784638-.220575996665502.763098341563818-.4411519933401,1.144647512353913-.661727989995597,1.24584825560305-.720232781771301,1.788734404356546-2.518298116192454.986566748339101-3.762522122907285-.810274196905993-1.256797877910685-2.42951015008839-1.757189428106358-3.762522122906375-.986566748338191-2.697844317639465,1.559640918500008-5.395688635199804,3.119281837137351-8.09353295280016,4.678922755704662-.381549170784638.220575996665502-.763098341563818.4411519933401-1.144647512353913.661727989995597l4.137977746888282,2.374544435622738c-.000000127457497-3.112398392740033-.000000254774022-6.224796785480066-.000000382162398-9.337195178220099-.000000018338142-.448035184991568-.000000036665369-.896070369984045-.000000055013516-1.344105554975613l-4.137977746888282,2.374544435622738c2.697844445267037,1.559640697151735,5.395688890537713,3.119281394296195,8.093533335807479,4.678922091445202l1.144647566522508.661727896050252c1.246036508408906.720341475603163,3.066575382492374.33065201709087,3.762522122906375-.986566748338191.693691193376253-1.31294969035298.343860407037937-2.99339388804583-.986566748339101-3.762522122907285Z"/><path class="uuid-35bf85ea-0f60-44f7-bcb3-f72ee94a2e00" d="m83.3173551123773,74.56796076145838c-9.985753283184749-.075999176690857-19.970991637314-.151691015521465-29.957048407391994-.174625051483417-2.40048913917235-.005512977295439-3.604668092662905,3.002503007292034-1.944543690409773,4.694543750014418.092071336603112.095239715550633.185035108739612.189595485560858.278891316410409.283067310032493,2.510277295345986,2.510467362601958,6.323980184618449-1.321314070557492,3.889087380820456-3.889087380819547-.09112692196959-.096100032705181-.183117157724155-.191581476811734-.278891316411318-.283067310032493-2.561030929112349-2.446359766190653-6.358469410673933,1.341383451333968-3.889087380819547,3.889087380819547,6.341029893220366,6.54214964741368,12.682052040255257,13.084306802873471,19.023081933475623,19.626456450287151l-.430000745212965-3.332521377693411c-5.207375511758983,7.130775942782748-10.414748504949785,14.261553724795704-15.622124016708767,21.392329667578451l4.749088871245476,2.775955374569094c.556104701435288-.761508238379065,1.112235527835765-1.522997407137154,1.668310384219694-2.284527439904195.876424768383004-1.200240893690534.203193655890573-3.066632924979785-.986566748338191-3.762522122906375-1.392715916141242-.814597593244798-2.883926005954891-.216416457722516-3.762522122907285.986566748338191-.556144568723539.761479095352115-1.11228025750097,1.522964775263063-1.668310384219694,2.284527439903286-1.26869067622647,1.737653061522906.451202111915336,4.137219182363879,2.374544435622738,4.137977746889192,13.58353825260383.005357335573535,27.167076498975803.010730459356637,40.750614751579633.016087796523607,3.539047205282259.001395797528858,3.54478844377627-5.498602057339667,0-5.50000011920929-13.58353825260383-.00535733716697-27.167076498974893-.010730460950072-40.750614751579633-.016087796523607l2.374544435622738,4.137977746889192c.556030126697806-.761562664612939,1.112165815442495-1.523048344479321,1.668310384219694-2.284527439904195l-4.749088871245476-2.775955374568184c-.556074856227497.76153003255331-1.112205683051798,1.523019201892566-1.668310384219694,2.284527439903286-.876472025222938,1.200206842691841-.203158474952033,3.066653502262852.986566748338191,3.762522122907285,1.392661835908257.814565961792141,2.883989272082545.216461706871087,3.762522122907285-.986566748338191,5.207375511758983-7.130775942783657,10.414748504949785-14.261553724796613,15.622124016708767-21.39232966758027.717809218275761-.982939811739925.357869138126262-2.519662462613269-.430000745212965-3.332521377693411-6.341029893220366-6.54214964741368-12.682052040255257-13.084306802873471-19.023081933475623-19.626456450287151l-3.889087380819547,3.889087380819547c.095774158687163.091485833220759.187764394441729.186967277328222.278891316410409.283067310032493l3.889087380820456-3.889087380819547c-.093856207670797-.093471824471635-.186819979808206-.18782759448186-.278891316411318-.283067310032493l-1.944543690409773,4.694543750014418c9.986056755726167.022934035929211,19.97129512315496.098625874783465,29.957048407391994.174625051483417,3.539943070120898.026941658904434,3.543479354586452-5.473031546490347,0-5.50000011920929h0Z"/><path class="uuid-35bf85ea-0f60-44f7-bcb3-f72ee94a2e00" d="m121.326688802840181,121.014071394874918c12.895784691649169-.087447665565378,25.792181820361293.087447665560831,38.687966513149149,0l-2.374544435622738-1.362022372320098c5.223655980478725,6.792764212205839,10.447314578894293,13.585526411211504,15.670970559371199,20.378290623419161v-2.775955374567275c-3.842226491177826,6.262996261850276-7.684477734163011,12.52597733890525-11.526704225343565,18.788973600754616l2.374544435622738-1.362022372321007c-9.298778796406623.371306225291846-18.603929862270888.550508125768829-27.910109503765852.537352063077378-3.539196105657538-.00500332979118-3.544625919121245,5.494989113339216,0,5.50000011920929,8.591602548681294.012145871464782,17.182977186247626-.136405760496928,25.768745721939922-.454580862136936,1.097903431887971-.040686577395718,2.549812919475698.114982939242509,3.529341469109568-.458226824922349,1.043680941635102-.610751066562443,1.657278906302054-2.079856772566018,2.267310405434728-3.074232998712432,1.109977778693064-1.80930905412697,2.219957307223012-3.618617034760064,3.329937247702219-5.427924762667317,2.305342993326121-3.757793038584168,4.610687587926805-7.515585094814014,6.916023320545719-11.273382587713968.462309583319438-.753584724583561.569795095818336-2.035002342890948,0-2.775955374567275-3.415467117508342-4.441422423393306-6.830935355237671-8.882843985332329-10.246403257579004-13.324265805186769-1.707733494245986-2.220710315750694-3.414342625123027-4.442290555001819-5.123202334982125-6.662134316828997-.542431271176611-.704629330653916-1.034774024000399-1.405577735574298-1.944850453010986-1.655680213867527-.510352914286159-.140252537696142-1.066726135285535-.095775941264947-1.591352386602011-.092898571399928-.763915635649028.004189778577711-1.52783835106402.007015996145128-2.291762565720092.009063417961443-7.939490060462958.021278923811224-15.879092448297342-.017977361279918-23.818570669823202-.029757797395177-3.905746084338716-.005795266508358-7.811653050562199-.011124579884381-11.717339840425666.015360290975877-3.537790945334564.023990130637685-3.545724087231065,5.524044045312621,0,5.50000011920929h0Z"/><path class="uuid-35bf85ea-0f60-44f7-bcb3-f72ee94a2e00" d="m87.953777409004942,74.571652658441053c-1.987329868923553-1.148887790311164-3.974659738200899-2.297775580013877-5.961989607301803-3.446663370019451-.844502694468247-.488212273859972-1.680687560234219-.996061860843838-2.535627054101496-1.465861811751893-2.047673865561592-1.125222414470045-4.462109323801087.221451603052628-4.537541009354754,2.56037945112439-.009427423354282.292318312346652.00000002401066.586644750861524.000000035978701.879054449967953l.000000331097908,8.089541755166465c.000000011968041.292414283681865-.009450904882215.586739048804702.000000035978701.879054449967953.075425000840369,2.332877721040859,2.49067160679806,3.679830532558299,4.537541024597886,2.56037941838531.855748724713521-.468016598912072,1.691259883198654-.97772806998637,2.535626934099128-1.465862019852466l4.296720941392778-2.483961640092275,1.40953974949025-.814863873097238c.083451324070666-.048243739966892.169093928923758-.094026824374851.250890487039214-.14504138252596,1.675189747868899-1.044775804460187,1.952586064280695-3.309372747893576.561404134209624-4.716154682059823-1.013058481767075-1.024418402509582-2.888212809451943-1.090299147916085-3.889087380819547,0-1.012388303470289,1.102841590954995-1.081003172437704,2.795962390558088,0,3.889087380819547l.085306012413639.086262590495608-.707223709337086-1.213484740987951.028435340828764.11087220105037v-1.462117898844554l-.028435331757464.110872203382314.707223709337086-1.213484740987951c-.035752155265982.036153067613668.682375186110221-.435591879474487.413367805775124-.310270304183177-.057232723271227.026662818803743-.111307237961228.064347420540798-.165975951889777.095951750950917l-.609999438762316.352644546162992-2.050859456265243,1.185614864932177-4.604637861490119,2.661970365418711-.758768256266194.438648743540398c-.073984427703181.04277086710681-.149693865263544.083550820646451-.222352714948101.128543515400452-.231278653030131.143215174530269-.228261394111541-.01766156452959.45446769737373-.197191901355836h1.462117898844554l-.110333616509706-.030782133802859,1.213484740987951.707223709337086-.081870349019482-.080114247452002.707223709336176,1.213484740987951c-.015968619682099-.058373316738653.040138179791029.853882875417185.066193998716699.54700589614913.005351891607461-.063032842474058-.000000005265065-.128636482270849-.000000007854396-.191903488280332l-.000000028867362-.705289042262848-.00000009705218-2.371229561555992-.000000217904017-5.323940352945101-.00000003590776-.877297424809512c-.000000003499736-.085516298232506.002794699811602-.171612240541435-.000000010521944-.257087012552802-.00905084626902-.276815458050805.134720563928568-.218806428414609-.066194015071233.515637397296814l-.707223709337086,1.213484740987951.081870342452021-.080114254153159-1.213484740987951.707223709337086.110333613979492-.030782142843236h-1.462117898844554c.053998004793357.01419930229622-.729707090820739-.383626971200101-.481598079729338-.212876164971021.052140517876069.035883563541574.111173330275051.064269995491486.165975959745083.095951737329415l.609999467631496.352644496099856,2.050859553324699,1.18561469661654,4.604638079411416,2.661969987513658c.355381200430202.205448088070625.710762400892236.41089617608668,1.066143601291515.616344264211875,1.246036508305224.720341475795976,3.066575382564224.330652016954446,3.762522122906375-.986566748339101.693691193464474-1.312949690519417.343860406923341-2.993393887841194-.986566748339101-3.762522122906375Z"/><path class="uuid-d9f76950-e84f-497b-8360-30f639d967d5" d="m115.487935445710718,118.98173139244318c1.987329493612378,1.148888439520306,3.974658987300245,2.297776878910554,5.961988480949003,3.446665318367195.842582499336459.487102564457018,1.673225476421067,1.014376479529346,2.53562657506609,1.465862640381602.629606093845723.329612796884248,1.284720440738056-.009649909213294,1.340012790741639-.725504063143489.022326040830194-.289048829877174.000000168513907-.589487287704287.000000251291567-.879054449967953l.000002312522156-8.089541755166465c.000000082788574-.289604168281585.022345750820023-.590009309281413.000000251292477-.879054449967953-.055210510559846-.71416303636579-.710124209887908-1.053469407190278-1.340012684524481-.725504291553989-.863133798476156.449409359634046-1.693329955666741.978924053702031-2.535627413135444,1.465861191221848l-4.296721753138627,2.483960235945233c-.701870022367075.405755207465518-2.871523336258178,1.246711312923253-1.791761081760342,2.338582183908329.566490957471615.572843672358431,1.450348537729951-.311065990753377.883883476482879-.883883476482879,1.653355629156977,1.671896608106181-.378467647820798.628917318439562-.096674684709797.570103666538671.034057554710671-.007108229905498.066379262934788-.043500685338586.098535172983247-.056963765771798.130947630929768-.054825333357257.257821002005585-.149047844792221.380378349445891-.219898971570728l1.265534950021902-.731613232985183,3.598842738717394-2.08051225375948,2.819607625447134-1.630031830072767c.090821349083853-.052504358593069.207935787749193-.097901975580498.287538664651038-.166227801176319.241635439704623-.207403821992557-.478550256039853-.488874489042246-.523523360480795-.363871654240938-.070941000395578.197180654151452-.00000015810474.553072132292073-.000000216857188.75859682862756l-.000002179034709,7.622580277720772-.000000351558811,1.229802422244575c-.000000018781066.065700858532182-.020909416486575.172937339441887-.000000067655492.236671126509464.030241216955801.092178254700229.768820052103365-.153842962854469.523523260002548-.363871892574934-.225222917731116-.192841202505406-.558541476040773-.322896553807368-.814517684790189-.470878107921635l-1.460544952040436-.844350781319918c-2.068396511613173-1.195753823407358-4.136793023262726-2.391507646749233-6.2051895348377-3.587261470222984-.697722890422483-.40335825809052-1.327867114665423.676416401721326-.630898935090954,1.079338356434164Z"/><path class="uuid-35bf85ea-0f60-44f7-bcb3-f72ee94a2e00" d="m114.188049707235223,120.619473071673383c2.697843936151912,1.559641580117386,5.395687872505732,3.119283159889164,8.093531808757689,4.678924739833747.381549116852511.220576090201575.763098233717756.441152180379504,1.144647350556625.661728270605636,1.80386385626116,1.042825731094126,4.137977149919607-.282567532830399,4.137977746888282-2.374544435622738.000000888157956-3.112398392740033.000001776797944-6.224796785480066.000002665196007-9.337195178220099.000000127886779-.448035184991568.000000255808118-.896070369984045.000000383659426-1.344105554975613.000000596969585-2.091978170647053-2.334114408857204-3.417368490115223-4.137977746888282-2.374544435622738-2.69784482675459,1.559640035533448-5.395689653232694,3.119280071543471-8.093534479849041,4.678920107316117-.381549242773872.220575871812798-.763098485527735.441151743660157-1.144647728320706.661727615440213-1.245848503371235.720232381343521-1.788734222426683,2.518298398381376-.986566748339101,3.762522122906375.81027441286551,1.256798212881222,2.429509890107511,1.757188996703007,3.762522122906375.986566748339101,2.69784482675459-1.559640035533448,5.395689653232694-3.119280071543471,8.093534479849041-4.678920107316117.381549242773872-.220575871812798.763098485527735-.441151743660157,1.144647728320706-.661727615440213l-4.137977746888282-2.374544435622738c-.000000888157956,3.112398392740033-.000001776797944,6.224796785480066-.000002665196007,9.337195178220099-.000000127885869.448035184991568-.000000255808118.896070369984045-.000000383659426,1.344105554975613l4.137977746888282-2.374544435622738c-2.697843936151912-1.559641580117386-5.395687872505732-3.119283159888255-8.093531808757689-4.678924739833747-.381549116852511-.220576090201575-.763098233718665-.441152180379504-1.144647350556625-.661728270605636-1.246036284558613-.720341889940755-3.066575537125573-.330651724416384-3.762522122906375.986566748339101-.693691383275109,1.312950049773463-.343860162236524,2.99339344899272.986566748339101,3.762522122906375Z"/><path class="uuid-35bf85ea-0f60-44f7-bcb3-f72ee94a2e00" d="m94.669613733159167,79.893332313355131c10.613152741377235.00000313172859,21.226305482754469.00000004686899,31.839458224132613,0l-2.374544435622738-4.137977746889192c-10.098862935370562,21.896450441399793-20.16389208471719,43.808527223014607-30.219265937534146,65.724977279311133-2.309319187660549,5.033336341467475-4.617811229307335,10.06705232655986-6.924889258696567,15.101416351209991-.843151925799248,1.839874364234674.133515144530065,4.137977732858417,2.374544435622738,4.137977746889192,11.150610347093789.000000069810085,22.30122059004043.000159715720656,33.451830888085169.001284913161726,3.539002967951092.000357117411113,3.544833874704636-5.499642413406946,0-5.50000011920929-11.15061029806202-.00112519744107-22.301220540995018-.001284843351641-33.451830888085169-.001284913161726l2.374544435622738,4.137977746889192c9.631743943774381-21.017800259674004,19.280578293120016-42.027793815250334,28.946082211789872-63.030089729392785,2.730489436977223-5.933115089330386,5.462698602369528-11.865439210817385,8.198072984440842-17.79630390112834.84825656758494-1.839197938677898-.137325654390224-4.137977756769033-2.374544435622738-4.137977746889192-10.613152741378144.00000004686899-21.226305482754469.00000313172859-31.839458224132613,0-3.538987662229374-.000001044284545-3.544849308724224,5.499999073194886,0,5.50000011920929h0Z"/></g></svg>