<?xml version="1.0" encoding="UTF-8"?><svg id="uuid-1c411708-910c-47a7-886e-468c90852eca" xmlns="http://www.w3.org/2000/svg" viewBox="0 0 147.503570480443159 111.493482079392379"><defs><style>.uuid-1024c21d-77dc-435b-a548-cd1c9cace2c1{fill:#231f20;stroke-width:0px;}</style></defs><g id="uuid-d1bbf6cb-b056-4f72-91eb-e3b8aab48c96"><path class="uuid-1024c21d-77dc-435b-a548-cd1c9cace2c1" d="m37.521329445536139,6.186566965886414c-11.591302870924665-.088190827001199-23.182008103519365-.176120149980306-34.773663368237067-.202701970947601-2.400902677140948-.005505716281732-3.604122552685112,3.002271357459904-1.944543690409773,4.694543750014418.105409235698971.108383909882832.21144128798278.216153490613578.318096156852334.32330874219042,2.520816731754167,2.540897727374613,6.188936515280147-1.241700444384151,3.889087380819547-3.889087380819547-.098275764590653-.113126540105441-.209022474779886-.2204636905999-.318096156852334-.32330874219042-2.574928072039256-2.42788732698682-6.360376640323921,1.339415745644146-3.889087380819547,3.889087380819547,7.360566255648337,7.594022807601505,14.721123448392063,15.188054399487555,22.081689704043129,22.782077207086331l-.430000745212965-3.332521377693411c-6.044638338982622,8.27729082769838-12.089273729598062,16.554583808494499-18.133912068580685,24.831874636192879-1.319435245440218,1.806782911127812.496683398171626,4.030728875659406,2.374544435622738,4.137977746889192.306415250955979.01750006477414.614790045884547.043392100310484.921998014682686.04379280001649,2.709159740255927.003533630702805,3.767649643682489-3.76732468051614,1.387977687284547-5.124544495227383-.838626737228878-.478301566673508-2.099252473218257-.513057094633041-3.041034651389054-.321015764140611-3.082405456789274.628541565938576-2.317548574248576,5.400565097260369.731058949421822,5.401767459351504,15.767554270448272.006218678324331,31.535108533625134.012455777100513,47.302662804073407.018674457277484,3.539047204984854.001395790515744,3.544788444084588-5.498602064364604,0-5.50000011920929-15.767554270448272-.006218680176971-31.535108533625134-.012455778953154-47.302662804073407-.018674457277484l.731058949421822,5.401767459351504c-1.155251492219577.23557043099936-.218458451353399.091065652645739.182622795988209.137282366855288l-1.387977687284547-.375455623981907.008316269273564.004743093018988,1.387977687283637-5.124544495227383c-.307207968799048-.000400699706006-.615582763726707-.02629273524235-.921998014682686-.04379280001649l2.374544435622738,4.137977746889192c6.044638338982622-8.277290827699289,12.089273729598062-16.554583808495408,18.133912068580685-24.831874636194698.71780921739628-.982939808469382.357869139811555-2.519662465962028-.430000745212965-3.332521377693411-7.360566255651065-7.594022807599686-14.721123448394792-15.188054399484827-22.081689704043129-22.782077207086331l-3.889087380819547,3.889087380819547c.109040137893317.102813422945474.219652045403564.209988415777843.318096156852334.32330874219042l3.889087380819547-3.889087380819547c-.106654868869555-.107155251576842-.212686921153363-.214924832307588-.318096156852334-.32330874219042l-1.944543690409773,4.694543750014418c11.591655249108953.026581820931824,23.182360463883015.114511143692653,34.773663368237067.202701970947601,3.539942833614987.026933166142953,3.543479850995027-5.473040042158573,0-5.50000011920929h0Z"/><path class="uuid-1024c21d-77dc-435b-a548-cd1c9cace2c1" d="m81.641956972943262,59.216158248299507c12.045218462483717-.08206968374725,24.091583212223668.020198727999741,36.136940178768782.022174476492182,2.923814837157806.000479580868159,5.847676511964892-.00225355837938,8.771433491245261-.022174476492182l-2.374544435622738-1.362022372321007c6.063536430719068,7.884932221246345,12.127075924491692,15.769862086994181,18.190612355208941,23.654794308242344v-2.775955374569094c-4.459995060000438,7.269986093699117-8.920019119846984,14.539954396504982-13.380014179848331,21.80994049020228l2.374544435622738-1.362022372320098c-10.793789325765829.431486435411898-21.59521247158591.639568350240552-32.397609379136156.623749693146237-3.539203316381645-.005182687150409-3.544617646978622,5.49480950349971,0,5.50000011920929,9.915223037952273.014519510307764,19.830256795460627-.156295260788283,29.738822150810847-.521262228153319,1.245731312992575-.045884622359154,2.942324648297472.168363693402171,4.046764915608946-.477943088974826,1.162007203074609-.679994345321575,1.844958641821904-2.38578276354292,2.530413047152251-3.503101329609308,1.28653854395634-2.097110165086633,2.573079082472759-4.19421910654728,3.859620086824179-6.291327762224682,2.658851488499749-4.334024684663746,5.317704766846873-8.668048271287262,7.976547794211001-13.002078146706481.462309575759718-.753584733064599.569795100353076-2.035002335427635,0-2.775955374569094-3.99182784853474-5.190913320011532-7.983657024401509-10.381825619298979-11.975485791426763-15.57273823298874-1.970648825301396-2.562601364294096-3.939795095490808-5.12636647124873-5.911949540754904-7.687809202173412-.760789817871228-.988117108894585-1.339681517187273-1.671314742276991-2.677721458650012-1.75626924539938-.408194585766068-.025916990320184-.829373928730092.005367053435293-1.237957239427487.007477997508431-.910793083779026.004705608896074-1.821594165039642.007812855331395-2.732396500676259.010027474571871-9.12951369169059.02219844623869-18.259128998666711-.021953662128908-27.388626934319291-.035413308221905-4.51642341139177-.006658576533482-9.033038835146726-.012864188358435-13.549392995591006.017907836141603-3.537784454766552.024104573301884-3.545727479717243,5.524158812039786,0,5.50000011920929h0Z"/><path class="uuid-1024c21d-77dc-435b-a548-cd1c9cace2c1" d="m42.734877265416799,6.162181317423347c-2.332357190181938-1.348350235955877-4.66471438044573-2.696700471768054-6.997071570668595-4.045050707651171-.989405928718952-.571981737173701-1.965313152581984-1.186201958066704-2.975846175972038-1.720355231242138-2.080097286945602-1.099509613864939-4.42331637594998.193301317282021-4.547591876546903,2.558065774222086-.01773822915402.337530194052306.000000027859642.680693606287605.000000041690328,1.018595571784317.000000129894943,3.173616167164255.000000259785338,6.34723233432851.000000389680281,9.520848501492765.000000013868885.338843010766141-.011962219866291.679926533434809.000000041690328,1.018595571784317.083619550311596,2.367391195826713,2.508209117481783,3.665259037968099,4.547591891599041,2.558065740657185,1.005735846256357-.546020100774513,1.985172444875388-1.14764078684766,2.975846035137693-1.720355475474207l5.042689760698522-2.915210947912783,1.654254897864121-.956335253156794c.097886492145335-.056588802226543.198741415596487-.109998421804448.294448466005633-.170222526554426,1.670257383712851-1.051017194718952,1.958303291020457-3.30492638848591.562244101946817-4.716640272736186-1.013058481770713-1.024418402505034-2.888212809449215-1.090299147917904-3.889087380819547,0-1.01238830346756,1.102841590951357-1.081003172441342,2.795962390562636,0,3.889087380819547l.08530601241273.086262590494698-.707223709336176-1.213484740987951.028435340829674.11087220104946v-1.462117898843644l-.028435331758374.110872203381405.707223709337086-1.213484740987951c-.020560718864544.020791279679543.689623723467776-.433194784108309.40331693891676-.304459834276713-.067317859827199.030268794786934-.130880369007173.075662771795578-.194791620059732.112610271563426l-.715903584578882.413868404850291-2.406916372229716,1.39145362733143-5.404065219170661,3.124124393481907-.890500679193792.514804093113526c-.086776096261929.050165811867373-.175986418974389.097681793266929-.260956151034407.150860406751235-.239834204438012.150101102462031-.257222452333735-.005394069969952.439706628596468-.188658433832643h1.462117898844554l-.110333616508797-.030782133802859,1.213484740987951.707223709336176-.081870349020392-.080114247451093.707223709336176,1.213484740987951c-.011136249615447-.040708579644161.03451591024168.860354043006737.066193998284689.53643974149054.007091017844687-.072506967247136-.000000006113623-.149373142901823-.000000009096766-.222269419274198l-.00000003499099-.854900172741509-.000000113463102-2.772182813805557-.000000254276529-6.212598880703808-.000000043314685-1.058286539511755c-.000000018420906-.450069567522405.168950748236057-.657260489278997-.066194027896017.202311921268119l-.707223709337086,1.213484740987951.081870342452021-.080114254153159-1.213484740987951.707223709336176.110333613979492-.030782142843236h-1.462117898844554c.033685049284031.00885781242232-.731855905309203-.390908621392555-.471547212393489-.207065695888559.060484569472464.042717206540146.130676322025465.075544796640315.19479162927928.112610255576328l.715903618459379.413868346095114,2.406916486138471,1.391453429791909c1.80135515830716,1.041374649988029,3.602710316614321,2.082749299976967,5.40406547492239,3.124123949963177.417080179280674.241116652488927.834160358567715.482233304965121,1.251240537840204.72334995746678,1.246036508389807.720341475640453,3.066575382507835.330652017064494,3.762522122907285-.986566748339101.693691193393533-1.312949690384812.3438604070152-2.993393888004903-.986566748338191-3.762522122906375Z"/><path class="uuid-1024c21d-77dc-435b-a548-cd1c9cace2c1" d="m88.865446898798837,100.181303002262212c-3.131614746400373-1.810406013806642-6.263229493362815-3.620812026638305-9.394844240045131-5.431218039955638-.442896204950557-.256041057914445-.885792409942042-.512082115758858-1.328688614852581-.768123173742424-1.803863559959609-1.042824772999666-4.137977832407159.282566808312367-4.137977746889192,2.374544435622738.000000147689207,3.612822348354712.000000295736754,7.225644696710333.000000443608769,10.838467045064135.000000021286723.520072087482731.000000042598003,1.040144174964553.000000063858351,1.560216262446374.000000085517968,2.091977445777957,2.334114112662064,3.417369448678073,4.137977746889192,2.374544435622738,3.131614598411034-1.810406270467865,6.263229196969405-3.620812540680163,9.394843795454108-5.431218811020699.442896183992161-.256041094264219.885792367994327-.512082188510249,1.328688551976484-.768123282791748,1.245848255551209-.720232781852246,1.788734404392926-2.518298116135156.986566748338191-3.762522122907285-.810274196862338-1.256797877842473-2.429510150141141-1.757189428193669-3.762522122907285-.986566748338191-3.131614598411034,1.810406270467865-6.263229196969405,3.620812540679253-9.394843795454108,5.431218811020699-.442896183992161.256041094264219-.885792367994327.512082188510249-1.328688551976484.768123282791748l4.137977746889192,2.374544435622738c-.000000147689207-3.612822348354712-.000000295737664-7.225644696709423-.000000443608769-10.838467045064135-.000000021285814-.520072087481822-.000000042598003-1.040144174964553-.000000063858351-1.560216262446374l-4.137977746889192,2.374544435622738c3.131614746400373,1.810406013806642,6.263229493363724,3.620812026637395,9.394844240045131,5.431218039955638.442896204951467.256041057914445.885792409942042.512082115759767,1.328688614852581.768123173742424,1.246036508304314.720341475799614,3.066575382566953.330652016952627,3.762522122907285-.986566748338191.693691193466293-1.312949690523055.343860406921522-2.993393887838465-.986566748338191-3.762522122907285Z"/><path class="uuid-1024c21d-77dc-435b-a548-cd1c9cace2c1" d="m73.578703362671149,58.818482084778225c3.131614155808165,1.810407038082303,6.263228311648163,3.620814076109127,9.39484246747179,5.431221114165055l1.32868836416219.76812360851909c1.803863856419412,1.042825731052289,4.137977149725884-.282567532802204,4.137977746889192-2.374544435622738.000001031295142-3.612822348355621.000002062478416-7.225644696710333.000003093716259-10.838467045065045.000000148448635-.520072087482731.000000296889084-1.040144174964553.000000445345904-1.560216262446374.000000597163307-2.091978170487891-2.334114409054564-3.417368490331683-4.137977746889192-2.374544435622738-3.131615189253353,1.810405245759284-6.263230378686785,3.620810491208431-9.394845568029268,5.431215736813101-.442896267555625.256040949338058-.885792535123983.512081898654287-1.328688802666875.768122848014173-1.245848503266643.720232381511778-1.788734222503081,2.518298398262232-.986566748339101,3.762522122907285.810274412774561,1.256798212739341,2.42950989021665,1.757188996883997,3.762522122906375.986566748338191,3.131615189254262-1.810405245759284,6.263230378687695-3.620810491208431,9.394845568031087-5.431215736813101.442896267554715-.256040949338058.885792535123983-.512081898654287,1.328688802666875-.768122848014173l-4.137977746889192-2.374544435622738c-.000001031295142,3.612822348354712-.000002062477506,7.225644696710333-.000003093716259,10.838467045065954-.000000148448635.520072087481822-.000000296889084,1.040144174963643-.000000445345904,1.560216262445465l4.137977746889192-2.374544435622738c-3.131614155809075-1.810407038081394-6.263228311648163-3.620814076110037-9.394842467472699-5.431221114164146l-1.328688364163099-.76812360852c-1.246036284596812-.720341889870724-3.066575537099197-.330651724466406-3.762522122906375.986566748338191-.693691383243277,1.312950049713436-.343860162277451,2.993393449068208.986566748339101,3.762522122907285Z"/><path class="uuid-1024c21d-77dc-435b-a548-cd1c9cace2c1" d="m50.698849953556419,11.483861033029825c12.319578206953338.000003648000529,24.639156413906676.000000047090907,36.958734620860014,0l-2.374544435622738-4.137977746889192c-5.8181866597306,12.614999588899991-11.624752140792225,25.235358683009508-17.427121885061752,37.857640023986278-5.88031779033372,12.791846916900795-11.755753048275437,25.585938959095074-17.62670481081841,38.382087186105309-2.688698595503411,5.860205833289001-5.376436806697711,11.720852481321344-8.062515452585103,17.582259694425375-.843150389938273,1.83987456394334.133513998039234,4.137977735485038,2.374544435622738,4.137977746889192,12.943450412467428.000000065863787,25.886900703601896.000184698407793,38.830351059097666.001491506678576,3.539002976124721.000357308000275,3.544833866424597-5.499642222505827,0-5.50000011920929-12.94345035549577-.001306808270783-25.886900646623872-.001491440814789-38.830351059097666-.001491506678576l2.374544435622738,4.137977746889192c5.12072537046879-11.174154066094161,10.246943041334816-22.345791769190328,15.375998458915092-33.516124441673128,6.060494223276692-13.198870186041859,12.125262148505499-26.395780012240721,18.197107904237782-39.589432334968478,3.178510955020101-6.906659050902817,6.359016079395587-13.812400980938037,9.54323578531239-20.716430127875356.848259603922997-1.839197533628976-.137327920954704-4.13797775544117-2.374544435622738-4.137977746889192-12.319578206953338.000000047090907-24.639156413906676.000003648000529-36.958734620860014,0-3.538987662386717-.000001047944352-3.544849308565972,5.499999069529622,0,5.50000011920929h0Z"/></g></svg>