<?xml version="1.0" encoding="UTF-8"?><svg id="uuid-fb986e23-95d3-40b2-82ee-4bd02317a5b4" xmlns="http://www.w3.org/2000/svg" viewBox="0 0 1131.841690002038376 192.537639719250365"><defs><style>.uuid-71485d70-f152-4508-89e1-07e3c152edcd,.uuid-7cd005c4-8d98-4388-a6a5-eb3e89b4bb48{fill:#231f20;stroke:#231f20;stroke-miterlimit:10;}.uuid-7cd005c4-8d98-4388-a6a5-eb3e89b4bb48{stroke-width:1.299999952316284px;}.uuid-5096a72f-c6ec-4802-9ebc-2343744fc700{fill:#fff;stroke-width:0px;}</style></defs><g id="uuid-ce098c1a-cb2b-4f02-8069-acaa9bad1b20"><rect class="uuid-7cd005c4-8d98-4388-a6a5-eb3e89b4bb48" x=".649999976158142" y=".649999976158142" width="191.23763976693408" height="191.23763976693408" rx="12" ry="12"/><path class="uuid-5096a72f-c6ec-4802-9ebc-2343744fc700" d="m67.643825186922186,58.246047534426907c-9.985753283184749-.075999176691766-19.970991637314-.151691015521465-29.957048407391994-.174625051483417-2.400489139170531-.005512977295439-3.604668092663815,3.002503007292944-1.944543690409773,4.694543750014418.092071336603112.095239715549724.185035108740522.189595485560858.278891316411318.283067310032493,2.510277295347805,2.510467362599229,6.323980184625725-1.321314070562039,3.889087380819547-3.889087380819547-.09112692196868-.096100032703362-.183117157725064-.191581476813553-.278891316411318-.283067310032493-2.561030929116896-2.446359766184287-6.358469410674843,1.341383451333058-3.889087380819547,3.889087380819547,6.341029893220366,6.54214964741368,12.682052040254348,13.084306802873471,19.023081933474714,19.626456450287151l-.430000745212965-3.33252137769432c-5.207375511758983,7.130775942783657-10.414748504948875,14.261553724796613-15.622124016707858,21.39232966758027-1.319039258392877,1.806240665780933.496304743525798,4.031546103302389,2.374544435622738,4.137977746888282.535185299909244.030326614505611.991214242311798.026174238438216,1.526062274466312-.063135262356809,1.330735894920508-.222207713815806,2.154117359650627-1.791897604984115,1.969824780253475-3.017296874457315-.219679906797865-1.460696888551865-1.300839796413129-2.207788107718443-2.700883729675297-2.384470584893279-.530284524671515-.066920745271091-.987657690803644-.026768115240884-1.526062274466312.063135262356809-3.111443118044008.519552124927941-2.295418710094054,5.400573819216334.731058949421822,5.401767459350594,13.58353825260383.005357335573535,27.167076498975803.010730459356637,40.750614751579633.016087796523607,3.539047205281349.001395797528858,3.54478844377627-5.498602057340577,0-5.50000011920929-13.58353825260383-.00535733716697-27.167076498975803-.010730460950072-40.750614751579633-.016087796523607l.731058949421822,5.401767459350594c-1.129988066581973.188686625100672-.293786620810351.088185189324577.063944375622668.133330057360581l-.731058949421822-5.401767459350594c1.184637755110998-.197812088987121.285454979881251-.113531121244705-.063944375622668-.133330057360581l2.374544435622738,4.137977746888282c5.207375511758983-7.130775942782748,10.414748504948875-14.261553724795704,15.622124016707858-21.392329667578451.717809218275761-.982939811740835.357869138126262-2.519662462613269-.430000745212965-3.33252137769432-6.341029893220366-6.54214964741368-12.682052040254348-13.084306802873471-19.023081933474714-19.626456450287151l-3.889087380819547,3.889087380819547c.095774158688073.091485833220759.187764394442638.186967277328222.278891316411318.283067310032493l3.889087380819547-3.889087380819547c-.093856207670797-.093471824471635-.186819979808206-.187827594482769-.278891316411318-.283067310032493l-1.944543690409773,4.694543750014418c9.986056755726167.022934035928301,19.97129512315496.098625874784375,29.957048407391994.174625051483417,3.539943070120898.026941658905344,3.543479354586452-5.473031546490347,0-5.50000011920929h0Z"/><path class="uuid-5096a72f-c6ec-4802-9ebc-2343744fc700" d="m105.653158877385067,104.692158167843445c12.895784691649169-.087447665565378,25.792181820361293.087447665560831,38.687966513149149,0l-2.374544435622738-1.362022372321007c5.223655980478725,6.792764212206748,10.447314578894293,13.585526411212413,15.670970559371199,20.37829062342098v-2.775955374569094c-3.842226491176916,6.262996261851185-7.684477734163011,12.525977338906159-11.526704225343565,18.788973600754616l2.374544435622738-1.362022372320098c-9.298778796406623.371306225292756-18.603929862270888.550508125768829-27.910109503765852.537352063077378-3.539196105657538-.00500332979118-3.544625919121245,5.494989113339216,0,5.50000011920929,8.591602548680385.012145871464782,17.182977186248536-.136405760496928,25.768745721939922-.454580862136936,1.097903431887971-.040686577395718,2.549812919476608.114982939242509,3.529341469109568-.458226824922349,1.043680941635102-.610751066563353,1.657278906301144-2.079856772565108,2.267310405433818-3.074232998712432,1.109977778693064-1.80930905412697,2.219957307224831-3.618617034759154,3.329937247703128-5.427924762667317,2.305342993326121-3.757793038584168,4.610687587926805-7.515585094814014,6.916023320545719-11.273382587713058.462309583319438-.75358472458538.569795095818336-2.035002342892767,0-2.775955374569094-3.415467117507433-4.441422423392396-6.830935355237671-8.882843985331419-10.246403257579004-13.32426580518586-1.707733494245986-2.220710315750694-3.414342625123027-4.442290555001819-5.123202334982125-6.662134316828997-.542431271176611-.704629330653006-1.034774023999489-1.405577735574298-1.944850453010076-1.655680213866617-.510352914287068-.140252537697961-1.066726135286444-.095775941265856-1.591352386602011-.092898571400838-.763915635649028.00418977857862-1.527838351064929.007015996145128-2.291762565721001.009063417961443-7.939490060463868.021278923811224-15.879092448296433-.017977361279918-23.818570669824112-.029757797395177-3.905746084337807-.005795266508358-7.81165305056129-.011124579884381-11.717339840424756.015360290975877-3.537790945334564.023990130637685-3.545724087231065,5.524044045312621,0,5.50000011920929h0Z"/><path class="uuid-5096a72f-c6ec-4802-9ebc-2343744fc700" d="m72.280247483549829,58.24973943140958c-1.987329868923553-1.148887790311164-3.974659738200899-2.297775580013877-5.961989607301803-3.446663370019451-.844502694468247-.488212273859972-1.680687560234219-.996061860844748-2.535627054101496-1.465861811750983-2.047673865559773-1.125222414469135-4.462109323803816.221451603050809-4.537541009354754,2.560379451123481-.009427423353372.292318312346652.00000002401157.586644750861524.00000003597961.879054449967953l.000000331097908,8.089541755166465c.00000001196895.292414283681865-.009450904882215.586739048804702.00000003597961.879054449967953.075425000841278,2.33287772103904,2.490671606794422,3.679830532560118,4.537541024596067,2.5603794183844.855748724713521-.468016598911163,1.691259883198654-.97772806998546,2.535626934099128-1.465862019851556l4.296720941392778-2.483961640092275,1.40953974949025-.814863873097238c.083451324070666-.048243739966892.169093928922848-.094026824373941.250890487039214-.14504138252596,1.675189747868899-1.044775804461096,1.952586064280695-3.309372747893576.561404134209624-4.716154682059823-1.013058481767075-1.024418402509582-2.888212809451943-1.090299147915175-3.889087380819547,0-1.012388303470289,1.102841590954995-1.081003172436795,2.795962390558088,0,3.889087380819547l.085306012413639.086262590495608-.707223709337086-1.213484740987951.028435340828764.11087220105037v-1.462117898844554l-.028435331757464.110872203382314.707223709337086-1.213484740987951c-.035752155265982.036153067613668.682375186110221-.435591879474487.413367805775124-.310270304182268-.057232723271227.026662818802833-.111307237961228.064347420539889-.165975951889777.095951750950007l-.609999438762316.352644546162082-2.050859456265243,1.185614864933086-4.604637861490119,2.66197036541962-.758768256266194.438648743539488c-.073984427703181.04277086710681-.149693865263544.083550820646451-.222352714948101.128543515400452-.231278653030131.143215174531178-.228261394108813-.01766156452959.45446769737373-.197191901355836h1.462117898844554l-.110333616508797-.030782133802859,1.213484740987951.707223709337086-.081870349020392-.080114247452002.707223709336176,1.213484740987951c-.015968619681189-.058373316739562.040138179791938.853882875417185.066193998717608.54700589614913.005351891607461-.063032842474968-.000000005265065-.128636482270849-.000000007855306-.191903488280332l-.000000028866452-.705289042263757-.00000009705218-2.371229561555083-.000000217904926-5.323940352944192-.000000035906851-.877297424810422c-.000000003499736-.085516298232506.002794699812512-.171612240540526-.000000010521944-.257087012552802-.00905084626811-.276815458048077.134720563928568-.218806428434618-.066194015072142.515637397296814l-.707223709336176,1.213484740987951.081870342451111-.080114254153159-1.213484740987951.707223709337086.110333613978582-.030782142843236h-1.462117898843644c.053998004792447.01419930229622-.729707090820739-.383626971200101-.481598079729338-.212876164970112.052140517876069.035883563540665.111173330274141.064269995490577.165975959745083.095951737328505l.609999467631496.352644496098947,2.050859553324699,1.185614696618359,4.604638079411416,2.661969987513658c.355381200430202.205448088069716.710762400892236.410896176085771,1.066143601291515.616344264210966,1.246036508305224.720341475795976,3.066575382564224.330652016954446,3.762522122906375-.986566748338191.693691193464474-1.312949690520327.343860406923341-2.993393887842103-.986566748339101-3.762522122907285Z"/><path class="uuid-5096a72f-c6ec-4802-9ebc-2343744fc700" d="m112.068352730006154,139.273267842514542c-2.697844445267037-1.559640697150826-5.395688890537713-3.119281394296195-8.093533335806569-4.678922091445202l-1.144647566523417-.661727896050252c-1.803863559933234-1.04282477261313-4.137977832559045.282566808021329-4.137977746888282,2.374544435622738.000000127458406,3.112398392740033.000000254773113,6.224796785480066.000000382162398,9.337195178220099.000000018339051.448035184991568.000000036665369.896070369984045.000000055013516,1.344105554975613.000000085670763,2.091977445837074,2.334114112527459,3.417369448596219,4.137977746888282,2.374544435622738,2.697844317639465-1.559640918500008,5.395688635200713-3.119281837137351,8.09353295280016-4.678922755705571.381549170784638-.220575996664593.763098341563818-.44115199333919,1.144647512353913-.661727989994688,1.24584825560305-.720232781771301,1.788734404355637-2.518298116192454.986566748339101-3.762522122906375-.810274196905084-1.256797877911595-2.42951015008839-1.757189428108177-3.762522122906375-.986566748339101-2.697844317639465,1.559640918500008-5.395688635198894,3.11928183713826-8.09353295280016,4.678922755705571-.381549170784638.220575996664593-.763098341563818.44115199333919-1.144647512353913.661727989994688l4.137977746888282,2.374544435622738c-.000000127458406-3.112398392740033-.000000254774932-6.224796785480066-.000000382162398-9.337195178220099-.000000018339051-.448035184991568-.000000036665369-.896070369984045-.000000055013516-1.344105554975613l-4.137977746888282,2.374544435622738c2.697844445267037,1.559640697151735,5.395688890537713,3.119281394296195,8.093533335806569,4.678922091444292l1.144647566523417.661727896051161c1.246036508409816.720341475603163,3.066575382492374.33065201709087,3.762522122906375-.986566748339101.693691193377163-1.31294969035298.343860407037937-2.99339388804492-.986566748339101-3.762522122906375Z"/><path class="uuid-5096a72f-c6ec-4802-9ebc-2343744fc700" d="m98.514519781780109,104.29755984464191c2.697843936151912,1.559641580117386,5.395687872505732,3.119283159890074,8.093531808757689,4.678924739833747.381549116851602.220576090201575.763098233717756.441152180379504,1.144647350556625.661728270605636,1.80386385626116,1.042825731094126,4.137977149919607-.282567532831308,4.137977746888282-2.374544435622738.000000888157956-3.112398392740033.000001776797944-6.224796785480066.000002665196007-9.337195178220099.000000127885869-.448035184991568.000000255808118-.896070369984045.000000383659426-1.344105554975613.000000596968675-2.091978170647963-2.334114408857204-3.417368490115223-4.137977746888282-2.374544435622738-2.69784482675459,1.559640035534358-5.395689653232694,3.119280071544381-8.093534479849041,4.678920107316117-.381549242772962.220575871813708-.763098485527735.441151743660157-1.144647728320706.661727615440213-1.245848503371235.720232381342612-1.788734222427593,2.518298398380466-.986566748339101,3.762522122907285.81027441286642,1.256798212880312,2.429509890107511,1.757188996702098,3.762522122906375.986566748338191,2.69784482675459-1.559640035534358,5.395689653232694-3.119280071544381,8.093534479849041-4.678920107316117.381549242772962-.220575871813708.763098485527735-.441151743660157,1.144647728320706-.661727615440213l-4.137977746888282-2.374544435622738c-.000000888157956,3.112398392740033-.000001776797944,6.224796785480066-.000002665196007,9.337195178220099-.000000127885869.448035184991568-.000000255808118.896070369984045-.000000383659426,1.344105554975613l4.137977746888282-2.374544435622738c-2.697843936151912-1.559641580117386-5.395687872505732-3.119283159889164-8.093531808757689-4.678924739833747-.381549116851602-.220576090201575-.763098233717756-.441152180379504-1.144647350556625-.661728270605636-1.246036284559523-.720341889940755-3.066575537126482-.330651724416384-3.762522122906375.986566748338191-.693691383276018,1.312950049774372-.343860162236524,2.99339344899272.986566748339101,3.762522122907285Z"/><path class="uuid-5096a72f-c6ec-4802-9ebc-2343744fc700" d="m78.996083807704053,63.571419086323658c10.613152741378144.00000313172859,21.226305482754469.0000000468699,31.839458224132613,0l-2.374544435622738-4.137977746888282c-10.098862935370562,21.896450441398883-20.163892084716281,43.808527223014607-30.219265937534146,65.724977279311133-2.309319187660549,5.033336341466566-4.617811229307335,10.067052326558951-6.924889258696567,15.101416351209991-.843151925800157,1.839874364233765.133515144530065,4.137977732858417,2.374544435622738,4.137977746888282,11.150610347093789.000000069810085,22.30122059003952.000159715720656,33.451830888085169.001284913161726,3.539002967951092.000357117411113,3.544833874704636-5.499642413406946,0-5.50000011920929-11.15061029806202-.00112519744107-22.301220540995018-.001284843351641-33.451830888085169-.001284913161726l2.374544435622738,4.137977746888282c9.631743943773472-21.017800259673095,19.280578293119106-42.027793815248515,28.946082211790781-63.030089729391875,2.730489436977223-5.933115089329476,5.462698602368619-11.865439210817385,8.198072984439932-17.796303901129249.84825656758585-1.839197938676989-.137325654390224-4.137977756768123-2.374544435622738-4.137977746888282-10.613152741378144.0000000468699-21.226305482754469.00000313172859-31.839458224132613,0-3.538987662229374-.000001044284545-3.544849308724224,5.499999073195795,0,5.50000011920929h0Z"/><path class="uuid-71485d70-f152-4508-89e1-07e3c152edcd" d="m256.925674377038376,126.283629039462539c-2.330078125,2.2412109375-6.0947265625,3.31640625-9.58984375,3.31640625-8.24609375,0-12.7275390625-4.83984375-12.7275390625-12.7275390625v-44.6357421875h4.4814453125v10.2177734375h14.87890625v3.8544921875h-14.87890625v30.1162109375c0,6.0048828125,2.9580078125,9.3212890625,8.6943359375,9.3212890625,2.7783203125,0,5.3779296875-.896484375,7.259765625-2.599609375l1.8818359375,3.13671875Z"/><path class="uuid-71485d70-f152-4508-89e1-07e3c152edcd" d="m311.241104064538376,101.904722789462539v27.3369140625h-4.4814453125v-26.978515625c0-10.576171875-5.646484375-16.1337890625-15.1474609375-16.1337890625-11.0244140625,0-17.7470703125,7.0810546875-17.7470703125,18.1953125v24.9169921875h-4.4814453125V62.736754039462539h4.4814453125v29.48828125c3.2265625-6.3642578125,9.6806640625-10.12890625,18.3740234375-10.12890625,11.3837890625,0,19.001953125,6.72265625,19.001953125,19.80859375Z"/><path class="uuid-71485d70-f152-4508-89e1-07e3c152edcd" d="m363.941299377038376,119.023863414462539l2.599609375,2.9580078125c-4.123046875,5.01953125-10.4873046875,7.6181640625-17.6572265625,7.6181640625-14.1611328125,0-24.2001953125-9.859375-24.2001953125-23.751953125s9.5009765625-23.751953125,22.765625-23.751953125c12.458984375,0,21.33203125,9.322265625,21.9599609375,21.7802734375l-39.52734375,7.7080078125c2.2412109375,8.6044921875,9.5009765625,13.982421875,19.091796875,13.982421875,6.0048828125,0,11.3828125-2.1513671875,14.9677734375-6.54296875Zm-34.8662109375-13.5341796875c0,.896484375.08984375,1.8828125.1796875,2.7783203125l35.6728515625-6.9912109375c-1.2548828125-8.3349609375-7.8876953125-15.236328125-17.478515625-15.236328125-10.7548828125,0-18.3740234375,8.06640625-18.3740234375,19.44921875Z"/><path class="uuid-71485d70-f152-4508-89e1-07e3c152edcd" d="m440.483291564538376,119.023863414462539l2.599609375,2.9580078125c-4.123046875,5.01953125-10.4873046875,7.6181640625-17.6572265625,7.6181640625-14.1611328125,0-24.2001953125-9.859375-24.2001953125-23.751953125s9.5009765625-23.751953125,22.765625-23.751953125c12.458984375,0,21.33203125,9.322265625,21.9599609375,21.7802734375l-39.52734375,7.7080078125c2.2412109375,8.6044921875,9.5009765625,13.982421875,19.091796875,13.982421875,6.0048828125,0,11.3828125-2.1513671875,14.9677734375-6.54296875Zm-34.8662109375-13.5341796875c0,.896484375.08984375,1.8828125.1796875,2.7783203125l35.6728515625-6.9912109375c-1.2548828125-8.3349609375-7.8876953125-15.236328125-17.478515625-15.236328125-10.7548828125,0-18.3740234375,8.06640625-18.3740234375,19.44921875Z"/><path class="uuid-71485d70-f152-4508-89e1-07e3c152edcd" d="m536.745010314538376,101.904722789462539v27.3369140625h-4.4814453125v-26.978515625c0-10.576171875-5.4677734375-16.1337890625-14.6103515625-16.1337890625-10.576171875,0-17.119140625,7.0810546875-17.119140625,18.1953125v24.9169921875h-4.4814453125v-26.978515625c0-10.576171875-5.466796875-16.1337890625-14.609375-16.1337890625-10.576171875,0-17.119140625,7.0810546875-17.119140625,18.1953125v24.9169921875h-4.4814453125v-46.787109375h4.3017578125v10.0390625c3.0478515625-6.54296875,9.4111328125-10.3974609375,17.92578125-10.3974609375,8.42578125,0,14.6103515625,3.8544921875,17.1201171875,11.2939453125,3.046875-6.8125,9.8583984375-11.2939453125,18.9111328125-11.2939453125,11.2939453125,0,18.6435546875,6.72265625,18.6435546875,19.80859375Z"/><path class="uuid-71485d70-f152-4508-89e1-07e3c152edcd" d="m601.816299377038376,105.848082164462539c0,14.072265625-9.94921875,23.751953125-23.125,23.751953125-8.24609375,0-15.2373046875-4.033203125-19.0009765625-11.0244140625v28.0546875h-4.4814453125v-64.17578125h4.3017578125v11.025390625c3.6748046875-7.1708984375,10.755859375-11.3837890625,19.1806640625-11.3837890625,13.17578125,0,23.125,9.76953125,23.125,23.751953125Zm-4.4814453125,0c0-11.7412109375-8.15625-19.71875-18.912109375-19.71875s-18.822265625,7.9775390625-18.822265625,19.71875c0,11.7421875,8.06640625,19.71875,18.822265625,19.71875s18.912109375-7.9765625,18.912109375-19.71875Z"/><path class="uuid-71485d70-f152-4508-89e1-07e3c152edcd" d="m615.707900939538376,116.962339976962539v-54.2255859375h4.4814453125v53.6884765625c0,6.0048828125,2.6884765625,9.3212890625,8.24609375,9.3212890625,1.7919921875,0,3.4052734375-.4482421875,4.4814453125-.896484375l.3583984375,3.7646484375c-1.61328125.626953125-3.5859375.9853515625-5.3779296875.9853515625-7.9775390625,0-12.189453125-4.83984375-12.189453125-12.6376953125Z"/><path class="uuid-71485d70-f152-4508-89e1-07e3c152edcd" d="m636.412002502038376,105.848082164462539c0-13.892578125,9.94921875-23.751953125,23.3935546875-23.751953125s23.3935546875,9.859375,23.3935546875,23.751953125-9.94921875,23.751953125-23.3935546875,23.751953125-23.3935546875-9.859375-23.3935546875-23.751953125Zm42.2158203125,0c0-11.7412109375-8.06640625-19.71875-18.822265625-19.71875s-18.822265625,7.9775390625-18.822265625,19.71875c0,11.7421875,8.06640625,19.71875,18.822265625,19.71875s18.822265625-7.9765625,18.822265625-19.71875Z"/><path class="uuid-71485d70-f152-4508-89e1-07e3c152edcd" d="m738.052627502038376,82.454527476962539v41.767578125c0,15.685546875-6.9912109375,22.7666015625-20.8837890625,22.7666015625-7.8876953125,0-15.5068359375-2.689453125-19.80859375-7.439453125l2.419921875-3.40625c4.123046875,4.302734375,10.3076171875,6.8125,17.208984375,6.8125,11.3828125,0,16.58203125-5.736328125,16.58203125-18.1953125v-7.169921875c-3.1376953125,6.1845703125-9.4111328125,9.9482421875-17.478515625,9.9482421875-11.9208984375,0-19.5390625-6.7216796875-19.5390625-19.8076171875v-25.2763671875h4.4814453125v24.91796875c0,10.576171875,5.646484375,16.1328125,15.416015625,16.1328125,10.5771484375,0,17.1201171875-7.080078125,17.1201171875-18.1943359375v-22.8564453125h4.4814453125Z"/><path class="uuid-71485d70-f152-4508-89e1-07e3c152edcd" d="m798.641494689538376,82.454527476962539v46.787109375h-4.392578125v-11.0244140625c-3.6748046875,7.259765625-10.7548828125,11.3828125-19.1806640625,11.3828125-13.17578125,0-23.1240234375-9.76953125-23.1240234375-23.751953125,0-14.0712890625,9.9482421875-23.751953125,23.1240234375-23.751953125,8.3359375,0,15.3271484375,4.123046875,19.091796875,11.2041015625v-10.845703125h4.4814453125Zm-4.4814453125,23.3935546875c0-11.7412109375-8.0673828125-19.71875-18.8232421875-19.71875-10.7548828125,0-18.822265625,7.9775390625-18.822265625,19.71875,0,11.7421875,8.0673828125,19.71875,18.822265625,19.71875,10.755859375,0,18.8232421875-7.9765625,18.8232421875-19.71875Z"/><path class="uuid-71485d70-f152-4508-89e1-07e3c152edcd" d="m864.160049377038376,105.848082164462539c0,13.982421875-9.94921875,23.751953125-23.125,23.751953125-8.4248046875,0-15.505859375-4.2119140625-19.1806640625-11.3828125v11.0244140625h-4.3017578125V62.736754039462539h4.4814453125v30.3837890625c3.763671875-6.9912109375,10.7548828125-11.0244140625,19.0009765625-11.0244140625,13.17578125,0,23.125,9.6806640625,23.125,23.751953125Zm-4.4814453125,0c0-11.7412109375-8.15625-19.71875-18.912109375-19.71875s-18.822265625,7.9775390625-18.822265625,19.71875c0,11.7421875,8.06640625,19.71875,18.822265625,19.71875s18.912109375-7.9765625,18.912109375-19.71875Z"/><path class="uuid-71485d70-f152-4508-89e1-07e3c152edcd" d="m878.051650939538376,116.962339976962539v-54.2255859375h4.4814453125v53.6884765625c0,6.0048828125,2.6884765625,9.3212890625,8.24609375,9.3212890625,1.7919921875,0,3.4052734375-.4482421875,4.4814453125-.896484375l.3583984375,3.7646484375c-1.61328125.626953125-3.5859375.9853515625-5.3779296875.9853515625-7.9775390625,0-12.189453125-4.83984375-12.189453125-12.6376953125Z"/><path class="uuid-71485d70-f152-4508-89e1-07e3c152edcd" d="m938.013565002038376,119.023863414462539l2.5986328125,2.9580078125c-4.123046875,5.01953125-10.486328125,7.6181640625-17.6572265625,7.6181640625-14.1611328125,0-24.19921875-9.859375-24.19921875-23.751953125s9.5-23.751953125,22.765625-23.751953125c12.458984375,0,21.33203125,9.322265625,21.958984375,21.7802734375l-39.5263671875,7.7080078125c2.240234375,8.6044921875,9.5009765625,13.982421875,19.0908203125,13.982421875,6.005859375,0,11.3828125-2.1513671875,14.96875-6.54296875Zm-34.8662109375-13.5341796875c0,.896484375.08984375,1.8828125.1787109375,2.7783203125l35.6728515625-6.9912109375c-1.2548828125-8.3349609375-7.88671875-15.236328125-17.4775390625-15.236328125-10.755859375,0-18.3740234375,8.06640625-18.3740234375,19.44921875Z"/><path class="uuid-71485d70-f152-4508-89e1-07e3c152edcd" d="m1021.995010314538376,62.736754039462539v66.5048828125h-4.392578125v-11.0244140625c-3.6748046875,7.259765625-10.7548828125,11.3828125-19.1806640625,11.3828125-13.17578125,0-23.1240234375-9.76953125-23.1240234375-23.751953125,0-14.0712890625,9.9482421875-23.751953125,23.1240234375-23.751953125,8.3359375,0,15.3271484375,4.123046875,19.091796875,11.2041015625v-30.5634765625h4.4814453125Zm-4.4814453125,43.111328125c0-11.7412109375-8.0673828125-19.71875-18.8232421875-19.71875-10.7548828125,0-18.822265625,7.9775390625-18.822265625,19.71875,0,11.7421875,8.0673828125,19.71875,18.822265625,19.71875,10.755859375,0,18.8232421875-7.9765625,18.8232421875-19.71875Z"/><path class="uuid-71485d70-f152-4508-89e1-07e3c152edcd" d="m1075.054580627038376,119.023863414462539l2.599609375,2.9580078125c-4.123046875,5.01953125-10.4873046875,7.6181640625-17.6572265625,7.6181640625-14.1611328125,0-24.2001953125-9.859375-24.2001953125-23.751953125s9.5009765625-23.751953125,22.765625-23.751953125c12.458984375,0,21.33203125,9.322265625,21.9599609375,21.7802734375l-39.52734375,7.7080078125c2.2412109375,8.6044921875,9.5009765625,13.982421875,19.091796875,13.982421875,6.0048828125,0,11.3828125-2.1513671875,14.9677734375-6.54296875Zm-34.8662109375-13.5341796875c0,.896484375.08984375,1.8828125.1796875,2.7783203125l35.6728515625-6.9912109375c-1.2548828125-8.3349609375-7.8876953125-15.236328125-17.478515625-15.236328125-10.7548828125,0-18.3740234375,8.06640625-18.3740234375,19.44921875Z"/><path class="uuid-71485d70-f152-4508-89e1-07e3c152edcd" d="m1131.072158752038376,82.454527476962539l-21.15234375,46.787109375h-4.5712890625l-21.0625-46.787109375h4.75l18.6435546875,41.857421875,18.822265625-41.857421875h4.5703125Z"/></g></svg>